<?xml version='1.0' encoding='utf-8'?>
<svg xmlns="http://www.w3.org/2000/svg" id="Warstwa_12" viewBox="0 0 1920 1402"><defs><style>.cls-1,.cls-2,.cls-3,.cls-4,.cls-5,.cls-6,.cls-7,.cls-8,.cls-9,.cls-10,.cls-11,.cls-12{fill:none;}.cls-2{stroke:#afafaf;}.cls-2,.cls-3,.cls-4,.cls-5,.cls-6,.cls-7,.cls-13,.cls-8,.cls-9,.cls-10,.cls-14,.cls-11,.cls-15,.cls-12{stroke-miterlimit:10;}.cls-2,.cls-13,.cls-11{stroke-linecap:round;}.cls-2,.cls-14{stroke-width:3px;}.cls-16{clip-path:url(#clippath);}.cls-17{opacity:.06;}.cls-18{opacity:.11;}.cls-19{fill:#f4d9bf;}.cls-20{fill:#eefbff;}.cls-21{fill:#ed6b6b;}.cls-22{fill:#e6e6e6;}.cls-23{fill:#fff;}.cls-24{fill:#efcaa6;}.cls-25,.cls-14,.cls-15{fill:#ff7373;}.cls-26{fill:#b7b7b7;}.cls-27{fill:#a0cae2;}.cls-28{fill:#b3b3b3;}.cls-29{fill:#c1c1c1;}.cls-30{fill:#a8cfe5;}.cls-31{fill:#bcbcbc;}.cls-32{fill:#c15252;}.cls-33{fill:#ce5555;}.cls-34{fill:#ccc;}.cls-35{fill:#ddd;}.cls-36{fill:#afafaf;}.cls-37{fill:#232323;}.cls-38{fill:#565656;}.cls-39{fill:#382209;}.cls-40{fill:#51330c;}.cls-3{stroke-width:1.83px;}.cls-3,.cls-4,.cls-6,.cls-7{stroke:#fff;}.cls-41{clip-path:url(#clippath-1);}.cls-42{clip-path:url(#clippath-2);}.cls-4{stroke-width:.38px;}.cls-5{stroke-width:2px;}.cls-5,.cls-9,.cls-10{stroke:#b3b3b3;}.cls-6{stroke-width:.79px;}.cls-13{fill:#999;stroke:#999;stroke-width:3.14px;}.cls-8{stroke:#a5a5a5;}.cls-8,.cls-9{stroke-width:1.78px;}.cls-10{stroke-width:1.78px;}.cls-14,.cls-15{stroke:#bcbcbc;}.cls-11{stroke:#000;stroke-width:5px;}.cls-15{stroke-width:3.46px;}.cls-43{fill:url(#Gradient_bez_nazwy_3);}.cls-12{stroke:#b7b7b7;stroke-width:5.41px;}</style><clipPath id="clippath"><rect class="cls-1" x="-2" width="1922" height="1402"/></clipPath><clipPath id="clippath-1"><rect class="cls-1" x="134" y="170" width="270" height="256" rx="28.86" ry="28.86"/></clipPath><clipPath id="clippath-2"><rect class="cls-1" x="134.05" y="642.02" width="270" height="256" rx="28.86" ry="28.86"/></clipPath><linearGradient id="Gradient_bez_nazwy_3" x1="-52.24" y1="1036.86" x2="53.07" y2="1036.86" gradientUnits="userSpaceOnUse"><stop offset="0" stop-color="#fff" stop-opacity="0"/><stop offset="1" stop-color="#000"/></linearGradient></defs><g class="cls-16"><g><path class="cls-30" d="m1328.5,154c-2.67,0-5.28.27-7.8.79.18-2.24.3-4.5.3-6.79,0-45.29-36.71-82-82-82-35.9,0-66.39,23.08-77.5,55.2-1.49-.12-2.99-.2-4.5-.2-30.38,0-55,24.62-55,55s24.62,55,55,55h168v-.18c1.15.1,2.32.18,3.5.18,21.26,0,38.5-17.24,38.5-38.5s-17.24-38.5-38.5-38.5Z"/><path class="cls-27" d="m1147,169c-3-5,1-12,6-14,12-4,24,3,36-2,15-8,4-25,8-37,5-15,26-17,33-30,3.35-6.03,4.45-12.95,4.51-19.86-33.93,1.83-62.37,24.29-73.01,55.06-1.49-.12-2.99-.2-4.5-.2-30.38,0-55,24.62-55,55,0,23.16,14.33,42.97,34.59,51.07.68-1.1,1.47-2.13,2.41-3.07,18-15,19-35,8-55Z"/><path class="cls-30" d="m1328.5,154c-2.67,0-5.28.27-7.8.79.18-2.24.3-4.5.3-6.79,0-45.29-36.71-82-82-82-1.51,0-3,.06-4.49.14-.07,6.92-1.17,13.84-4.51,19.86-7,13-28,15-33,30-4,12,7,29-8,37-12,5-24-2-36,2-5,2-9,9-6,14,11,20,10,40-8,55-.94.94-1.72,1.97-2.41,3.07,6.31,2.52,13.19,3.93,20.41,3.93h168v-.18c1.15.1,2.32.18,3.5.18,21.26,0,38.5-17.24,38.5-38.5s-17.24-38.5-38.5-38.5Z"/><path class="cls-27" d="m1554.81,352.68c-1.42-2.36.47-5.68,2.84-6.62,5.68-1.89,11.35,1.42,17.03-.95,7.09-3.78,1.89-11.82,3.78-17.5,2.36-7.09,12.3-8.04,15.61-14.19,1.58-2.85,2.1-6.12,2.13-9.39-16.05.87-29.5,11.49-34.53,26.04-.7-.06-1.41-.09-2.13-.09-14.37,0-26.01,11.65-26.01,26.01,0,10.95,6.78,20.32,16.36,24.16.32-.52.69-1.01,1.14-1.45,8.51-7.09,8.99-16.55,3.78-26.01Z"/><path class="cls-30" d="m1640.66,345.58c-1.26,0-2.5.13-3.69.37.09-1.06.14-2.13.14-3.21,0-21.42-17.36-38.78-38.78-38.78-.71,0-1.42.03-2.12.06-.03,3.27-.55,6.55-2.13,9.39-3.31,6.15-13.24,7.09-15.61,14.19-1.89,5.68,3.31,13.72-3.78,17.5-5.68,2.36-11.35-.95-17.03.95-2.36.95-4.26,4.26-2.84,6.62,5.2,9.46,4.73,18.92-3.78,26.01-.44.44-.82.93-1.14,1.45,2.99,1.19,6.24,1.86,9.65,1.86h79.46v-.08c.55.05,1.1.08,1.66.08,10.06,0,18.21-8.15,18.21-18.21s-8.15-18.21-18.21-18.21Z"/><path class="cls-27" d="m1056.64,371.46c1.86-3.11-.62-7.46-3.73-8.7-7.46-2.49-14.92,1.86-22.38-1.24-9.32-4.97-2.49-15.54-4.97-23-3.11-9.32-16.16-10.57-20.51-18.65-2.08-3.74-2.76-8.05-2.81-12.35,21.09,1.14,38.76,15.1,45.38,34.22.92-.08,1.86-.12,2.8-.12,18.88,0,34.19,15.31,34.19,34.19,0,14.4-8.9,26.71-21.5,31.74-.42-.68-.91-1.33-1.5-1.91-11.19-9.32-11.81-21.75-4.97-34.19Z"/><path class="cls-30" d="m943.82,362.14c1.66,0,3.28.17,4.85.49-.11-1.39-.19-2.8-.19-4.22,0-28.15,22.82-50.97,50.97-50.97.94,0,1.86.03,2.79.08.04,4.3.72,8.6,2.81,12.35,4.35,8.08,17.4,9.32,20.51,18.65,2.49,7.46-4.35,18.02,4.97,23,7.46,3.11,14.92-1.24,22.38,1.24,3.11,1.24,5.59,5.59,3.73,8.7-6.84,12.43-6.22,24.86,4.97,34.19.58.58,1.07,1.23,1.5,1.91-3.92,1.57-8.2,2.44-12.68,2.44h-104.42v-.11c-.72.06-1.44.11-2.18.11-13.22,0-23.93-10.71-23.93-23.93s10.71-23.93,23.93-23.93Z"/><path class="cls-34" d="m1983.54,1114.06c-22.89,23.49-34.39-2.49-67.19-2.49-32.8,0-32.8,1.68-65.59,1.68-32.8,0-32.8.13-65.59.13s-32.8.36-65.59.36c-32.8,0-32.8-1.34-65.59-1.34-32.79,0-32.79,1.97-65.59,1.97-32.79,0-32.79-3.29-65.59-3.29-32.8,0-32.8-.56-65.59-.56s-32.8.47-65.59.47-32.8,2.39-65.6,2.39-32.8-1.57-65.59-1.57c-32.8,0-32.8,1.29-65.6,1.29q-32.8,0-65.6-.07c-32.8,0-32.8-.21-65.59-.21-32.8,0-32.8,1.9-65.6,1.9-32.8,0-32.8-4-65.6-4-32.8,0-32.8,1.15-65.6,1.15s-43.33,24.73-66.22,1.23c-23.49-24.11,2.39-34.26,2.39-67.92q0-33.66,0-67.32c0-33.66.58-33.66.58-67.32,0-33.66-4.72-33.66-4.72-67.32,0-33.66,2.56-33.66,2.56-67.32s.71-33.66.71-67.32-.75-33.66-.75-67.33.23-33.66.23-67.33c0-33.66-25.31-44.61-1.82-68.73,22.89-23.49,34.23.51,67.03.51s32.8.03,65.59.03,32.8,1.25,65.59,1.25,32.8-.46,65.59-.46,32.8-.48,65.59-.48c32.79,0,32.79,2.72,65.59,2.72s32.79-1.69,65.59-1.69,32.8-2.74,65.59-2.74,32.8-.09,65.59-.09,32.8,4.24,65.6,4.24,32.8-1.35,65.59-1.35,32.8,1.45,65.6,1.45,32.8-2.63,65.6-2.63,32.8,1.65,65.59,1.65c32.8,0,32.8.28,65.6.28s32.8-.86,65.6-.86,32.8,1.47,65.6,1.47,43.88-26.55,66.77-3.06c23.49,24.11,1.07,34.8,1.07,68.46,0,33.66-3.09,33.66-3.09,67.32,0,33.66-1.47,33.66-1.47,67.32,0,33.66,4.04,33.66,4.04,67.32,0,33.66-1.31,33.66-1.31,67.32,0,33.66,1.75,33.66,1.75,67.32,0,33.66-3.62,33.66-3.62,67.33,0,33.66-5.55,34.4,1.81,67.25,8.02,35.83,24.75,44.85,1.26,68.96Z"/><path class="cls-34" d="m1903.48,610.2c-9,23-19.35,41-39.35,54-16.6,10.56-35.08,13.95-53.95,14.17s-37.7-1.39-56.1.1c-23,1-42.41,13.67-62.41,27.67-8,6-14.3,14.13-22.3,16.13-26,8-52.43-6.05-75.43-19.05-22-11-42.37-23.1-64.37-38.1-16.41-10.44-32.75-20.35-48.78-30.43s-32.23-20.86-50.33-27.9c-31-12-64.1,1.49-96.1,6.49-17.46,2.99-34.37,7.81-51.46,11.68s-34.78,3.83-52.82,1.32c-33-4-58.24-25.72-90.24-34.72-21.47-5.24-42.38-6.3-63.28-5.53-21.25.79-42.58,1.8-63.59,6.28-20.66,4.4-40.59,12.8-61.36,18.32s-41.64,9.2-62.6,13.4c-16.91,3.19-33.67.65-48.77-6.01s-26.91-17.11-37.4-30.06c-6.41,32.17-2.65,32.49-2.65,65.29,0,32.8-.14,32.8-.14,65.6,0,32.8,3.47,32.8,3.47,65.6s-3.14,32.8-3.14,65.6-1,32.8-1,65.6c0,32.8,2.87,32.8,2.87,65.61s-.86,32.8-.86,65.61c0,32.8-24.97,44.07-1.78,67.27,23.19,23.19,34.45-2.68,67.25-2.68s32.8.83,65.59.83,32.8.44,65.59.44,32.8-1.92,65.59-1.92,32.8,2.06,65.59,2.06,32.79.34,65.59.34,32.79-2.47,65.59-2.47,32.8,1.83,65.59,1.83,32.8-1.83,65.59-1.83,32.8.51,65.6.51,32.8,1.22,65.59,1.22,32.8.03,65.6.03,32.8-1.66,65.6-1.66,32.8.16,65.59.16,32.8,1.96,65.6,1.96,32.8-1.58,65.6-1.58,32.8-.46,65.6-.46,43.06,25.39,65.77,1.73c23.66-24.65-.21-34.33-.21-68.5,0-34.17-.23-34.17-.23-68.34,0-34.17.47-34.17.47-68.34,0-34.17-.87-34.17-.87-68.33s1.62-34.17,1.62-68.34-2.81-34.17-2.81-68.34,2.3-34.17,2.3-68.34,10.64-35.93,1.74-68.93c-16.49,7.22-37.51,9.69-54.58,17.81-12,6-21.05,16.16-26.05,27.16Z"/><path class="cls-29" d="m802.62,507.68c-25.5,31.52-4.27,39.51.23,79.8,10.5,12.95,21.47,25.85,36.53,32.49s32.29,5.07,49.2,1.88c20.97-4.19,42.24-6.73,62.77-12.19s41.08-12.42,61.74-16.82,42.13-8.79,63.38-9.58,42.35,1.41,63.82,6.66c32,9,56.66,33.5,89.66,37.5,18.04,2.51,35.16-1.41,52.32-5.3,17.09-3.87,33.96-10.06,51.42-13.05,32-5,65.96-14.74,96.96-2.74,18.1,7.04,33.22,19.31,49.43,29.5s32.44,19.83,48.85,30.28c22,15,42.71,26.7,64.71,37.7,23,13,49.02,24.04,75.02,16.04,8-2,16.81-5.19,24.81-11.19,20-14,37.46-31.92,60.46-32.92,18.39-1.49,37.61,2.33,56.25,2.11s36.96-3.69,53.56-14.25c20-13,30.36-30.55,39.36-53.55,5-11,14.43-21.03,26.43-27.03,17.07-8.13,36.81-9.76,53.29-16.98,7.13-28.74,22.53-41.16.55-61.01-24.34-21.98-34.21-.57-67.01-.57s-32.8,4.31-65.59,4.31c-32.8,0-32.8-2.63-65.59-2.63s-32.8-.83-65.59-.83c-32.8,0-32.8.84-65.59.84-32.79,0-32.79.88-65.59.88s-32.79-2.28-65.59-2.28-32.8.49-65.59.49-32.8.81-65.59.81-32.8-.13-65.6-.13-32.8.08-65.59.08-32.8-1.02-65.6-1.02c-32.8,0-32.8,3.11-65.6,3.11-32.8,0-32.8-3.57-65.59-3.57-32.8,0-32.8,3.51-65.6,3.51s-32.8,0-65.6,0c-32.8,0-33.39,4.8-65.4-2.35-33.92-7.58-43.8-23.51-64.43,1.99Z"/><g><path class="cls-9" d="m450.1,183.7h85.54c-2.7,11.59-3.29,23.49-1.84,35.22-18.69.03-37.37.08-56.06.08h-28.6c1.71-11.71,1.75-23.53.95-35.3Z"/><path class="cls-9" d="m488.67,219.19h85.54c-2.7,11.59-3.29,23.49-1.84,35.22-18.69.03-37.37.08-56.06.08h-28.6c1.71-11.71,1.75-23.53.95-35.3Z"/><path class="cls-9" d="m574.67,148.19h85.54c-2.7,11.59-3.29,23.49-1.84,35.22-18.69.03-37.37.08-56.06.08h-28.6c1.71-11.71,1.75-23.53.95-35.3Z"/><path class="cls-9" d="m611.67,113.19h85.54c-2.7,11.59-3.29,23.49-1.84,35.22-18.69.03-37.37.08-56.06.08h-28.6c1.71-11.71,1.75-23.53.95-35.3Z"/><path class="cls-9" d="m455.67,323.19h85.54c-2.7,11.59-3.29,23.49-1.84,35.22-18.69.03-37.37.08-56.06.08h-28.6c1.71-11.71,1.75-23.53.95-35.3Z"/><path class="cls-9" d="m623.67,270.19h85.54c-2.7,11.59-3.29,23.49-1.84,35.22-18.69.03-37.37.08-56.06.08h-28.6c1.71-11.71,1.75-23.53.95-35.3Z"/><path class="cls-9" d="m746.26,340.48h-85.54c2.7-11.59,3.29-23.49,1.84-35.22,18.69-.03,37.37-.08,56.06-.08h28.6c-1.71,11.71-1.75,23.53-.95,35.3Z"/><path class="cls-9" d="m687.67,235.19h85.54c-2.7,11.59-3.29,23.49-1.84,35.22-18.69.03-37.37.08-56.06.08h-28.6c1.71-11.71,1.75-23.53.95-35.3Z"/><path class="cls-9" d="m601.67,341.19h85.54c-2.7,11.59-3.29,23.49-1.84,35.22-18.69.03-37.37.08-56.06.08h-28.6c1.71-11.71,1.75-23.53.95-35.3Z"/></g><g><path class="cls-8" d="m1695.85,654.91h85.54c-2.7,11.59-3.29,23.49-1.84,35.22-18.69.03-37.37.08-56.06.08h-28.6c1.71-11.71,1.75-23.53.95-35.3Z"/><path class="cls-8" d="m1734.42,690.39h85.54c-2.7,11.59-3.29,23.49-1.84,35.22-18.69.03-37.37.08-56.06.08h-28.6c1.71-11.71,1.75-23.53.95-35.3Z"/><path class="cls-8" d="m1820.42,619.39h85.54c-2.7,11.59-3.29,23.49-1.84,35.22-18.69.03-37.37.08-56.06.08h-28.6c1.71-11.71,1.75-23.53.95-35.3Z"/><path class="cls-8" d="m1857.42,584.39h85.54c-2.7,11.59-3.29,23.49-1.84,35.22-18.69.03-37.37.08-56.06.08h-28.6c1.71-11.71,1.75-23.53.95-35.3Z"/><path class="cls-8" d="m1701.42,794.39h85.54c-2.7,11.59-3.29,23.49-1.84,35.22-18.69.03-37.37.08-56.06.08h-28.6c1.71-11.71,1.75-23.53.95-35.3Z"/><path class="cls-8" d="m1869.42,741.39h85.54c-2.7,11.59-3.29,23.49-1.84,35.22-18.69.03-37.37.08-56.06.08h-28.6c1.71-11.71,1.75-23.53.95-35.3Z"/><path class="cls-8" d="m1992.01,811.69h-85.54c2.7-11.59,3.29-23.49,1.84-35.22,18.69-.03,37.37-.08,56.06-.08h28.6c-1.71,11.71-1.75,23.53-.95,35.3Z"/><path class="cls-8" d="m1847.42,812.39h85.54c-2.7,11.59-3.29,23.49-1.84,35.22-18.69.03-37.37.08-56.06.08h-28.6c1.71-11.71,1.75-23.53.95-35.3Z"/></g><path class="cls-22" d="m824,1132.05c-26.2,27.52-37,.54-75,.54-38,0-38,2.71-76,2.71-38,0-38-3.32-76-3.32s-38,3.39-76,3.39c-38,0-38-3.38-76-3.38-38,0-38,1.38-76,1.38-38,0-38-2.47-76-2.47-38,0-38,.15-76,.15-38,0-38,1.32-76,1.32-38,0-38,2.18-76,2.18-38,0-49.29,25.49-75.5-2.03-27.52-28.89.19-39.42.19-79.32s.41-39.9.41-79.8-1.7-39.9-1.7-79.8-1.31-39.9-1.31-79.79-.34-39.9-.34-79.79,1.31-39.9,1.31-79.8c0-39.9.38-39.9.38-79.8s-1.6-39.9-1.6-79.8c0-39.9.28-39.9.28-79.8,0-39.9,1.46-39.9,1.46-79.8,0-39.9.73-39.9.73-79.8s.52-39.9.52-79.8c0-39.9-1.74-39.9-1.74-79.8s2.21-39.9,2.21-79.81c0-39.9-28.44-50.56-.93-79.46,26.2-27.52,37.63,1.7,75.63,1.7s38-1.53,76-1.53,38-1.96,76-1.96,38,1.68,76,1.68,38-.44,76-.44,38-.07,76-.07,38,.51,76,.51,38-2.15,76-2.15,38,3.27,76,3.27,38,.11,76,.11,49.42-28.63,75.63-1.11c27.52,28.89,1.25,39.54,1.25,79.44,0,39.9,1.38,39.9,1.38,79.8s-1.37,39.9-1.37,79.8-2.93,39.9-2.93,79.79,3.09,39.9,3.09,79.79-2.79,39.9-2.79,79.8c0,39.9,1.15,39.9,1.15,79.8s2.67,39.9,2.67,79.8c0,39.9-3.63,39.9-3.63,79.8,0,39.9-.37,39.9-.37,79.8,0,39.9,4.3,39.9,4.3,79.8,0,39.9-1.01,39.9-1.01,79.8,0,39.9-3.46,39.9-3.46,79.8,0,39.9-4.86,40.5,3.13,79.59,8.39,41.07,25.48,50.17-2.03,79.07Z"/><g><path class="cls-9" d="m89.04,364.97H3.5c2.7-11.59,3.29-23.49,1.84-35.22,18.69-.03,37.37-.08,56.06-.08h28.6c-1.71,11.71-1.75,23.53-.95,35.3Z"/><path class="cls-9" d="m50.47,329.48H-35.07c2.7-11.59,3.29-23.49,1.84-35.22,18.69-.03,37.37-.08,56.06-.08h28.6c-1.71,11.71-1.75,23.53-.95,35.3Z"/><path class="cls-9" d="m83.47,225.48H-2.07c2.7-11.59,3.29-23.49,1.84-35.22,18.69-.03,37.37-.08,56.06-.08h28.6c-1.71,11.71-1.75,23.53-.95,35.3Z"/></g><g><g><path class="cls-23" d="m404.15,426.16c-24.18,22.91-33.46-.16-66.77-.16-33.31,0-33.31.24-66.63.24s-33.32-.34-66.63-.34-33.32.16-66.63.16c-1.92,0-3.6-1.61-3.6-3.54,0-41.5.3-41.5.3-83.01q0-41.51,0-83.01c0-41.51-.27-41.51-.27-83.01,0-1.92,1.65-3.36,3.57-3.36q32.88,0,65.76.01t65.76-.06c32.88,0,32.88-.18,65.76-.18s32.88-.03,65.76-.03c1.92,0,3.64,1.69,3.64,3.61,0,31.56-.2,31.56-.2,63.13s.14,31.56.14,63.13c0,31.57-6.93,32.31-.14,63.14,7.29,33.09,23.1,41.57.19,63.28Z"/><path class="cls-5" d="m145.88,152.86q33.87,0,67.74-.04c33.87,0,33.87-.64,67.74-.64s33.87.28,67.75.28,35.75-11.35,67.93-.76c.2,22.37.67,45.28,1.02,67.65.35,22.37.54,44.74.93,67.11s1.06,44.73,1.41,67.1.13,44.75.33,67.12c.06,6.99-.15,14.56-4.73,19.85-5.55,6.4-15.08,7.36-23.55,7.2-22.91-.45-45.82-1.26-68.73-1.71s-45.82-1.03-68.73-1.48c-22.91-.45-45.82-.96-68.74-1.42s-46.06-.73-68.97-1.18c-.44-27.15-.74-54.5-1.18-81.65s-1.12-54.3-1.55-81.45-.45-54.31-.89-81.46"/><g class="cls-41"><path class="cls-20" d="m249.68,390.27c5.61-3.36,10.99-3.62,15.47-8.1,17.94-19.06,37.3-32.2,56.36-50.13,15.7-13.45,25.87-30.38,31.47-49.44,4.48-17.94-8.1-35.95,1.99-53.88,16.08-27.56,32.11-59.63,56.03-80.54-37.76-13.95-40.19-.46-80.44-.46-40.25,0-41.63-10.14-80.49.34-6.01,23.32-15.26,45.41-37.38,60.61-8.97,6.73-6.73,18.97-10.09,25.7-13.45,28.03-47.17,41.44-75.2,58.26-4.71,3.77-9.38,7.55-13.42,12.65-1.87,32.38-.21,32.43-.21,64.86s-22.27,41.46.04,65c21.14,22.31,30.88.03,61.62.03s31.81,7.91,61.46-.23c-.21-16.81-3.37-33.88,12.8-44.66Z"/></g><path class="cls-35" d="m110,447c-2.24,5.39,10.4,17.12,23,24,23.32,12.74,48.82,10.16,59,9,23.9-2.71,31.29-10.4,50-6,7,1.64,7.08,2.98,21,7,11.03,3.18,22.35,6.45,35,7,10.46.45,18.31-1.36,34-5,28.03-6.49,30.58-11.57,48-12,13.34-.33,24,1,24,1,12.26,1.53,18.46,3.92,26,1,3.14-1.22,10.45-4.09,12-10,2.02-7.7-6.93-16.11-10-19-36.51-34.34-217.17-8.11-262-4-9.68.89-19.3,2.34-29,3-21.65,1.47-29.46.29-31,4Z"/></g><path class="cls-28" d="m84,457c4.54-9.05,9.08-14.44,13.62-23.49,118.5-8.31,232.74-10.81,351.38-5.51-4.6,8.19-5.05,24.14-11.96,30.11-7.4,6.4-20.55,3.01-29.39,2.87-26.4-.41-52.81-.73-79.21-.95-52.43-.44-104.87-.51-157.3-.21-14.71.08-29.42.2-44.13.34-4.92.05-41.2-6.74-43-3.16Z"/><path class="cls-34" d="m84.39,456.19c4.47-7.94,8.95-15.88,13.42-23.81,116.75-7.28,233.88-8.61,350.77-3.95-4.54,7.18-9.55,20.3-16.35,25.53-7.29,5.61-20.25,2.64-28.96,2.52-26.01-.36-52.03-.64-78.05-.83-51.66-.39-103.32-.45-154.99-.19-14.49.07-28.99.17-43.48.3-4.85.04-40.6-2.71-42.37.44Z"/></g><g><path class="cls-10" d="m794.04,994.92h-85.54c2.7-11.6,3.29-23.51,1.84-35.25,18.69-.03,37.37-.08,56.06-.08h28.6c-1.71,11.72-1.75,23.54-.95,35.32Z"/><path class="cls-10" d="m755.47,959.41h-85.54c2.7-11.6,3.29-23.51,1.84-35.25,18.69-.03,37.37-.08,56.06-.08h28.6c-1.71,11.72-1.75,23.54-.95,35.32Z"/><path class="cls-10" d="m669.47,1030.46h-85.54c2.7-11.6,3.29-23.51,1.84-35.25,18.69-.03,37.37-.08,56.06-.08h28.6c-1.71,11.72-1.75,23.54-.95,35.32Z"/><path class="cls-10" d="m632.47,1065.48h-85.54c2.7-11.6,3.29-23.51,1.84-35.25,18.69-.03,37.37-.08,56.06-.08h28.6c-1.71,11.72-1.75,23.54-.95,35.32Z"/><path class="cls-10" d="m788.47,855.33h-85.54c2.7-11.6,3.29-23.51,1.84-35.25,18.69-.03,37.37-.08,56.06-.08h28.6c-1.71,11.72-1.75,23.54-.95,35.32Z"/><path class="cls-10" d="m620.47,908.37h-85.54c2.7-11.6,3.29-23.51,1.84-35.25,18.69-.03,37.37-.08,56.06-.08h28.6c-1.71,11.72-1.75,23.54-.95,35.32Z"/><path class="cls-10" d="m497.88,838.03h85.54c-2.7,11.6-3.29,23.51-1.84,35.25-18.69.03-37.37.08-56.06.08h-28.6c1.71-11.72,1.75-23.54.95-35.32Z"/><path class="cls-10" d="m556.47,943.4h-85.54c2.7-11.6,3.29-23.51,1.84-35.25,18.69-.03,37.37-.08,56.06-.08h28.6c-1.71,11.72-1.75,23.54-.95,35.32Z"/><path class="cls-10" d="m642.47,837.32h-85.54c2.7-11.6,3.29-23.51,1.84-35.25,18.69-.03,37.37-.08,56.06-.08h28.6c-1.71,11.72-1.75,23.54-.95,35.32Z"/></g><g><g><path class="cls-23" d="m404.2,898.18c-24.18,22.91-33.46-.16-66.77-.16-33.31,0-33.31.24-66.63.24-33.32,0-33.32-.34-66.63-.34s-33.32.16-66.63.16c-1.92,0-3.6-1.61-3.6-3.54,0-41.5.3-41.5.3-83.01q0-41.51,0-83.01c0-41.51-.27-41.51-.27-83.01,0-1.92,1.65-3.36,3.57-3.36q32.88,0,65.76.01t65.76-.06c32.88,0,32.88-.18,65.76-.18s32.88-.03,65.76-.03c1.92,0,3.64,1.69,3.64,3.61,0,31.56-.2,31.56-.2,63.13s.14,31.56.14,63.13c0,31.57-6.93,32.31-.14,63.14,7.29,33.09,23.1,41.57.19,63.28Z"/><path class="cls-5" d="m145.93,624.88q33.87,0,67.74-.04c33.87,0,33.87-.64,67.74-.64s33.87.28,67.75.28,35.75-11.35,67.93-.76c.2,22.37.67,45.28,1.02,67.65.35,22.37.54,44.74.93,67.11.39,22.37,1.06,44.73,1.41,67.1s.13,44.75.33,67.12c.06,6.99-.15,14.56-4.73,19.85-5.55,6.4-15.08,7.36-23.55,7.2-22.91-.45-45.82-1.26-68.73-1.71s-45.82-1.03-68.73-1.48-45.82-.96-68.74-1.42c-22.91-.45-46.06-.73-68.97-1.18-.44-27.15-.74-54.5-1.18-81.65s-1.12-54.3-1.55-81.45-.45-54.31-.89-81.46"/><g class="cls-42"><path class="cls-20" d="m249.73,862.3c5.61-3.36,10.99-3.62,15.47-8.1,17.94-19.06,37.3-32.2,56.36-50.13,15.7-13.45,25.87-30.38,31.47-49.44,4.48-17.94-8.1-35.95,1.99-53.88,16.08-27.56,32.11-59.63,56.03-80.54-37.76-13.95-40.19-.46-80.44-.46-40.25,0-41.63-10.14-80.49.34-6.01,23.32-15.26,45.41-37.38,60.61-8.97,6.73-6.73,18.97-10.09,25.7-13.45,28.03-47.17,41.44-75.2,58.26-4.71,3.77-9.38,7.55-13.42,12.65-1.87,32.38-.21,32.43-.21,64.86s-22.27,41.46.04,65c21.14,22.31,30.88.03,61.62.03s31.81,7.91,61.46-.23c-.21-16.81-3.37-33.88,12.8-44.66Z"/></g><path class="cls-35" d="m110.05,919.02c-2.24,5.39,10.4,17.12,23,24,23.32,12.74,48.82,10.16,59,9,23.9-2.71,31.29-10.4,50-6,7,1.64,7.08,2.98,21,7,11.03,3.18,22.35,6.45,35,7,10.46.45,18.31-1.36,34-5,28.03-6.49,30.58-11.57,48-12,13.34-.33,24,1,24,1,12.26,1.53,18.46,3.92,26,1,3.14-1.22,10.45-4.09,12-10,2.02-7.7-6.93-16.11-10-19-36.51-34.34-217.17-8.11-262-4-9.68.89-19.3,2.34-29,3-21.65,1.47-29.46.29-31,4Z"/></g><path class="cls-28" d="m84.05,929.02c4.54-9.05,9.08-14.44,13.62-23.49,118.5-8.31,232.74-10.81,351.38-5.51-4.6,8.19-5.05,24.14-11.96,30.11-7.4,6.4-20.55,3.01-29.39,2.87-26.4-.41-52.81-.73-79.21-.95-52.43-.44-104.87-.51-157.3-.21-14.71.08-29.42.2-44.13.34-4.92.05-41.2-6.74-43-3.16Z"/><path class="cls-34" d="m84.44,928.21c4.47-7.94,8.95-15.88,13.42-23.81,116.75-7.28,233.88-8.61,350.77-3.95-4.54,7.18-9.55,20.3-16.35,25.53-7.29,5.61-20.25,2.64-28.96,2.52-26.01-.36-52.03-.64-78.05-.83-51.66-.39-103.32-.45-154.99-.19-14.49.07-28.99.17-43.48.3-4.85.04-40.6-2.71-42.37.44Z"/></g><path class="cls-31" d="m-339.22,1098.8c24.37-26.07,35.9-2.42,71.59-2.42s35.69-1.36,71.38-1.36,35.69,4.82,71.38,4.82,35.69,2.13,71.38,2.13,35.69-1.91,71.38-1.91,35.69-.74,71.38-.74,35.69,4.49,71.38,4.49,35.69-1.85,71.38-1.85,35.69-3.95,71.38-3.95,35.69-1.51,71.38-1.51,35.69,4.86,71.38,4.86,35.69-2.62,71.38-2.62,35.69-.67,71.38-.67,35.69-1.39,71.38-1.39,35.69-.75,71.38-.75,35.69,7.84,71.38,7.84,35.69-2.78,71.38-2.78,35.69,1.09,71.38,1.09,35.69-4.54,71.38-4.54,35.69,2.58,71.38,2.58,35.69,0,71.38,0,35.69-3.25,71.38-3.25,35.69-1.23,71.38-1.23,35.69,5.55,71.38,5.55,35.69-6.31,71.38-6.31,35.69-.51,71.39-.51,35.69,8.03,71.38,8.03,35.69-3.95,71.39-3.95,35.69.83,71.39.83,35.69-1,71.38-1,35.69,1.85,71.39,1.85,35.69,1.99,71.39,1.99,35.7.9,71.39.9,45.33-28.52,69.71-2.45c26.07,27.87.78,36.6.78,74.76,0,38.17,5.17,38.17,5.17,76.33,0,38.17-7.59,38.17-7.59,76.33,0,38.17,8.05,38.17,8.05,76.33,0,38.17-2.08,38.17-2.08,76.34,0,38.17,21.84,46.98-4.23,74.86-24.37,26.07-34.11.83-69.8.83-35.69,0-35.69-2.79-71.38-2.79s-35.69,5.71-71.38,5.71c-35.69,0-35.69-1.47-71.38-1.47-35.69,0-35.69-4.02-71.38-4.02-35.69,0-35.69,6.63-71.38,6.63-35.69,0-35.69-.81-71.38-.81s-35.69-6.61-71.38-6.61c-35.69,0-35.69,7.02-71.38,7.02-35.69,0-35.69-3.52-71.38-3.52-35.69,0-35.69-1.8-71.38-1.8-35.69,0-35.69,5.6-71.38,5.6-35.69,0-35.69-7.19-71.38-7.19-35.69,0-35.69-.19-71.38-.19-35.69,0-35.69,4.29-71.38,4.29-35.69,0-35.69,2.79-71.38,2.79-35.69,0-35.69-7.64-71.38-7.64-35.69,0-35.69,5.55-71.38,5.55s-35.69,1.56-71.38,1.56-35.69-.97-71.38-.97-35.69-1.5-71.38-1.5c-35.69,0-35.69.47-71.38.47-35.69,0-35.69-3.41-71.38-3.41s-35.69-.24-71.38-.24c-35.69,0-35.69.57-71.38.57-35.69,0-35.69,3.74-71.39,3.74-35.69,0-35.69-5.75-71.38-5.75-35.69,0-35.69,9.22-71.39,9.22-35.69,0-35.69-3.75-71.39-3.75-35.69,0-35.69-4.11-71.38-4.11-35.69,0-35.69.44-71.39.44-35.69,0-35.69,1.96-71.39,1.96-35.7,0-35.7,5.49-71.39,5.49s-45.5,19.99-69.88-6.08c-26.07-27.87-6.31-36.75-6.31-74.92,0-38.17,6.86-38.17,6.86-76.33s-2.81-38.17-2.81-76.33c0-38.17,5.01-38.17,5.01-76.33s7.47-39.8-.39-77.15c-8.37-39.79-30.16-47.85-4.09-75.72Z"/><path class="cls-1" d="m-422.21,1170.3c891.43-1.83,1782.86-3.67,2674.29-5.5"/><g><path class="cls-8" d="m1596.85,1071.91h85.54c-2.7,11.59-3.29,23.49-1.84,35.22-18.69.03-37.37.08-56.06.08h-28.6c1.71-11.71,1.75-23.53.95-35.3Z"/><path class="cls-8" d="m1635.42,1107.39h85.54c-2.7,11.59-3.29,23.49-1.84,35.22-18.69.03-37.37.08-56.06.08h-28.6c1.71-11.71,1.75-23.53.95-35.3Z"/><path class="cls-8" d="m1721.42,1036.39h85.54c-2.7,11.59-3.29,23.49-1.84,35.22-18.69.03-37.37.08-56.06.08h-28.6c1.71-11.71,1.75-23.53.95-35.3Z"/><path class="cls-8" d="m1758.42,1001.39h85.54c-2.7,11.59-3.29,23.49-1.84,35.22-18.69.03-37.37.08-56.06.08h-28.6c1.71-11.71,1.75-23.53.95-35.3Z"/><path class="cls-8" d="m1602.42,1211.39h85.54c-2.7,11.59-3.29,23.49-1.84,35.22-18.69.03-37.37.08-56.06.08h-28.6c1.71-11.71,1.75-23.53.95-35.3Z"/><path class="cls-8" d="m1770.42,1158.39h85.54c-2.7,11.59-3.29,23.49-1.84,35.22-18.69.03-37.37.08-56.06.08h-28.6c1.71-11.71,1.75-23.53.95-35.3Z"/><path class="cls-8" d="m1893.01,1228.69h-85.54c2.7-11.59,3.29-23.49,1.84-35.22,18.69-.03,37.37-.08,56.06-.08h28.6c-1.71,11.71-1.75,23.53-.95,35.3Z"/><path class="cls-8" d="m1834.42,1123.39h85.54c-2.7,11.59-3.29,23.49-1.84,35.22-18.69.03-37.37.08-56.06.08h-28.6c1.71-11.71,1.75-23.53.95-35.3Z"/><path class="cls-8" d="m1748.42,1229.39h85.54c-2.7,11.59-3.29,23.49-1.84,35.22-18.69.03-37.37.08-56.06.08h-28.6c1.71-11.71,1.75-23.53.95-35.3Z"/></g><path class="cls-31" d="m1927.09,1148.46c-21.23,2.32-42-1.81-62.94,2.21-21.03,4.03-40.82,15.28-61.85,18.21s-42.81-.23-64.25-1.23c-5,0-10.06-5.15-15.06-5.15-25.39-.5-51.34-1.53-76.86,1.21-25.74,2.76-51.13,4.43-76.24,4.93-26.58.75-53.07,7.75-79.66,7.59s-53.13-3-79.74-3.38c-26.55-.37-53.13-.67-79.76-.58-26.53.1-53.34-3.88-79.98-2.64-32,2-64.39-2.3-96.39-5.3-24.91-2.74-50.1-1.58-74.92-2.98s-49.78-6.22-74.7-6.85-50.04,7.6-75,7.2c-24.9-.41-49.8-3.27-74.79-4.02-9,0-19.1-2.41-28.1-3.41-25.04-1-49.69-1.65-74.48.61s-49.76.33-74.72,2.32c-18.59,1-36.5,4.44-54.83,3.42s-36.34-2.02-54.75-6c-32-7-61.6-.07-92.6,2.93-24.96,2.99-50.57-.27-75.27,3.28s-49.53,4.99-74.51,6.2c-24.77,1.2-49.94,7.95-75.18,3.96-25.02-3.96-49.49-7.78-74.14-9.77-25.05-2.02-49.82-3.57-74.74-3.76s-49.99-3.37-75.06-1.96c-24.74,1.39-49.33,7.21-74.44,9.94-20,2-39.69,4.82-59.69-.18-20.28-4.58-39.63-11.24-59.41-11.77-20.3-.54-40.34,5.92-60.41,6.89s-40.38-4.3-60.6-4.63c-15,0-33.28,7.42-48.28-.58-1.63-.95.2-5.91-1.5-6.62-.86,34.03.05,34.01.05,68.05,0,34.04-4.11,34.04-4.11,68.08,0,34.04,1.44,34.04,1.44,68.08,0,34.04-.27,34.04-.27,68.08,0,34.04,4.11,34.04,4.11,68.08,0,34.04-28.38,45.92-3.74,69.42,25.82,24.63,36.96-4.83,72.65-4.83s35.69,6.71,71.38,6.71,35.69,1.58,71.38,1.58,35.69-8.7,71.38-8.7,35.69.81,71.38.81,35.69-.85,71.38-.85,35.69,2.06,71.38,2.06,35.69-1.27,71.38-1.27,35.69,2.64,71.38,2.64,35.69,1.98,71.38,1.98,35.69-5.1,71.38-5.1,35.69,2.79,71.38,2.79,35.69,1.64,71.38,1.64,35.69-2.51,71.38-2.51,35.69,2.78,71.38,2.78,35.69-.63,71.38-.63,35.69-1.61,71.38-1.61,35.69,3.23,71.38,3.23,35.69-.33,71.38-.33,35.69-5.46,71.38-5.46,35.69,1.58,71.38,1.58,35.69-2.24,71.38-2.24,35.69,9.11,71.38,9.11,35.69-3.07,71.38-3.07,35.69,1.06,71.38,1.06,35.69-3.05,71.39-3.05,35.69,2.03,71.38,2.03,35.69-6.17,71.39-6.17,35.69,7.96,71.39,7.96,35.69.53,71.38.53,35.69-1.76,71.39-1.76,35.69-.5,71.39-.5,35.7,3.01,71.39,3.01,46.89,21.19,70.87-5.25c26.44-29.16-1.23-38.88-1.23-78.24s2.34-39.36,2.34-78.72c0-39.36,2.88-39.36,2.88-78.72s1.02-39.36,1.02-78.72,12.25-42.9-.97-79.98c-27.31,2.12-58.23,4.28-84.94,1.89-27.17-2.43-54.55-3.81-79.49-15.57Z"/><path class="cls-36" d="m-339.73,1097.95c-20.34,14.11,3.04,25.72,3.88,50.46,1.7.71-.44,2.87,1.19,3.82,15,8,31.65,8.16,46.65,8.16,20.23.34,40.46.14,60.61-.83,20.07-.97,40.11-5.34,60.42-4.8,19.78.52,40.6-.12,60.88,4.46,20,5,37.63,2.24,57.63.24,25.11-2.73,50.34-2.21,75.08-3.6s50.12-1.32,75.06-1.12c24.92.19,50.19-1.99,75.24.03,24.65,1.98,49.67,5.5,74.69,9.46,25.24,3.99,49.52,7.57,74.28,6.37,24.98-1.22,49.95-2.88,74.82-6.45s49.52-6.49,74.48-9.49c31-3,61.22-8.47,93.22-1.47,18.41,3.98,36.04,10.66,54.21,11.66s36.88-.83,55.47-1.83c24.96-2,49.97-1.87,74.68-4.12,24.79-2.26,49.14-6.85,74.19-5.85,9,1,19.13.03,28.13.03,24.99.75,49.85,4.59,74.75,5s49.91-.11,74.84.52c24.91.63,49.85,1.36,74.8,2.78,24.82,1.41,49.59,4.38,74.5,7.12,32,3,64.84,3.65,96.84,1.65,26.64-1.24,53.43,4.88,79.96,4.78,26.63-.1,53.16.43,79.71.8,26.61.38,53.23-1.1,79.79-.94,26.59.16,53.14-2.78,79.71-3.53,25.11-.5,50.28-6.3,76.01-9.06,25.52-2.74,51.67-2.46,77.06-1.96,5,0,9.81,12.93,14.81,12.93,21.44,1.01,42.53-6.93,63.68-9.88,21.03-2.94,42.95-1.56,63.98-5.59,20.93-4.02,41.03-10.16,62.26-12.48,24.94,11.76,52.02,12.31,79.19,14.74s56.66,6.79,83.97,4.67c12.23-29.79,23.61-46.93-.3-68.5-26.5-23.91-38.31,7.72-74,7.72-35.69,0-35.69-2.04-71.38-2.04s-35.69-7.01-71.38-7.01c-35.69,0-35.69,6.38-71.38,6.38-35.69,0-35.69-1.69-71.38-1.69-35.69,0-35.69-1.71-71.38-1.71-35.69,0-35.69-2.72-71.38-2.72s-35.69,3.03-71.38,3.03c-35.69,0-35.69,4.18-71.38,4.18-35.69,0-35.69-7.26-71.38-7.26-35.69,0-35.69.69-71.38.69-35.69,0-35.69,8.15-71.38,8.15-35.69,0-35.69-6.97-71.38-6.97-35.69,0-35.69,1.53-71.38,1.53-35.69,0-35.69-.29-71.38-.29-35.69,0-35.69.2-71.38.2-35.69,0-35.69-2.26-71.38-2.26-35.69,0-35.69.58-71.38.58q-35.69,0-71.38-.02t-71.38.02c-35.69,0-35.69-1.02-71.38-1.02-35.69,0-35.69.27-71.38.27-35.69,0-35.69.75-71.38.75s-35.69,6.92-71.38,6.92c-35.69,0-35.69-3.58-71.38-3.58-35.69,0-35.69-1.35-71.39-1.35-35.69,0-35.69-1.7-71.38-1.7s-35.69.22-71.39.22c-35.69,0-35.69,1.16-71.39,1.16-35.69,0-35.69,1.87-71.38,1.87-35.69,0-35.69,2.45-71.39,2.45-35.69,0-35.69-4.74-71.39-4.74-35.7,0-36.43,8.38-71.51,1.8-37.02-6.94-42.67-22.06-72-1.71Z"/><line class="cls-2" x1="159.5" y1="1311.5" x2="350.5" y2="1311.5"/><line class="cls-2" x1="292.5" y1="1285.5" x2="483.5" y2="1285.5"/><line class="cls-2" x1="1116.5" y1="1325.5" x2="1350.5" y2="1325.5"/><path class="cls-17" d="m-88.78,9.43C-34.15,198.08,4.44,226.9,28.09,239.26c49.79,26.02,103.53,15.8,154.93,6.03,130.85-24.88,167.74-99.25,241.06-78.67,40.28,11.3,33.98,35.1,96.47,62.67,30.33,13.38,81.34,35.89,141.28,22.11,69.4-15.95,118.68-73.16,138.48-128.13,0,0,19.25-53.45,7.28-111.21C762.26-206.83-37.74-410.54-135.58-234.75c-15.72,28.24,5.13,100.22,46.81,244.17Z"/><line class="cls-2" x1="1162.17" y1="1313.5" x2="1259.5" y2="1313.5"/><line class="cls-2" x1="1061.51" y1="1291.5" x2="1540.5" y2="1291.5"/><line class="cls-2" x1="1492.2" y1="1361.22" x2="1971.19" y2="1361.22"/><line class="cls-2" x1="1694.5" y1="1340.22" x2="1867.19" y2="1340.22"/><g><g><path d="m-47-213.6c0-27.89,22.61-50.5,50.5-50.5h0c27.89,0,50.5,22.61,50.5,50.5V43.13c-33.73,1.23-67.33,1.35-101,1.4V-213.6Z"/><path class="cls-37" d="m54,43.13v43.27c0,27.89-22.61,50.5-50.5,50.5h0c-27.89,0-50.5-22.61-50.5-50.5v-41.87c33.67-.05,67.27-.18,101-1.4Z"/></g><g><path class="cls-33" d="m155-213.5c0-27.89-22.61-50.5-50.5-50.5h0c-27.89,0-50.5,22.61-50.5,50.5V43.23c33.73,1.23,67.33,1.35,101,1.4V-213.5Z"/><path class="cls-21" d="m54,43.23v43.27c0,27.89,22.61,50.5,50.5,50.5h0c27.89,0,50.5-22.61,50.5-50.5v-41.87c-33.67-.05-67.27-.18-101-1.4Z"/><path d="m155-213.6c0-27.89,22.61-50.5,50.5-50.5h0c27.89,0,50.5,22.61,50.5,50.5V43.13c-33.73,1.23-67.33,1.35-101,1.4V-213.6Z"/><path class="cls-37" d="m256,43.13v43.27c0,27.89-22.61,50.5-50.5,50.5h0c-27.89,0-50.5-22.61-50.5-50.5v-41.87c33.67-.05,67.27-.18,101-1.4Z"/></g><g><path class="cls-33" d="m357-213.5c0-27.89-22.61-50.5-50.5-50.5h0c-27.89,0-50.5,22.61-50.5,50.5V43.23c33.73,1.23,67.33,1.35,101,1.4V-213.5Z"/><path class="cls-21" d="m256,43.23v43.27c0,27.89,22.61,50.5,50.5,50.5h0c27.89,0,50.5-22.61,50.5-50.5v-41.87c-33.67-.05-67.27-.18-101-1.4Z"/><path d="m357-213.6c0-27.89,22.61-50.5,50.5-50.5h0c27.89,0,50.5,22.61,50.5,50.5V43.13c-33.73,1.23-67.33,1.35-101,1.4V-213.6Z"/><path class="cls-37" d="m458,43.13v43.27c0,27.89-22.61,50.5-50.5,50.5h0c-27.89,0-50.5-22.61-50.5-50.5v-41.87c33.67-.05,67.27-.18,101-1.4Z"/></g><g><path class="cls-33" d="m559-213.5c0-27.89-22.61-50.5-50.5-50.5h0c-27.89,0-50.5,22.61-50.5,50.5V43.23c33.73,1.23,67.33,1.35,101,1.4V-213.5Z"/><path class="cls-21" d="m458,43.23v43.27c0,27.89,22.61,50.5,50.5,50.5h0c27.89,0,50.5-22.61,50.5-50.5v-41.87c-33.67-.05-67.27-.18-101-1.4Z"/><path d="m559-213.6c0-27.89,22.61-50.5,50.5-50.5h0c27.89,0,50.5,22.61,50.5,50.5V43.13c-33.73,1.23-67.33,1.35-101,1.4V-213.6Z"/><path class="cls-37" d="m660,43.13v43.27c0,27.89-22.61,50.5-50.5,50.5h0c-27.89,0-50.5-22.61-50.5-50.5v-41.87c33.67-.05,67.27-.18,101-1.4Z"/></g><g><path class="cls-33" d="m761-213.6c0-27.89-22.61-50.5-50.5-50.5h0c-27.89,0-50.5,22.61-50.5,50.5V43.13c33.73,1.23,67.33,1.35,101,1.4V-213.6Z"/><path class="cls-21" d="m660,43.13v43.27c0,27.89,22.61,50.5,50.5,50.5h0c27.89,0,50.5-22.61,50.5-50.5v-41.87c-33.67-.05-67.27-.18-101-1.4Z"/><path d="m761-213.7c0-27.89,22.61-50.5,50.5-50.5h0c27.89,0,50.5,22.61,50.5,50.5V43.03c-33.73,1.23-67.33,1.35-101,1.4V-213.7Z"/><path class="cls-37" d="m862,43.03v43.27c0,27.89-22.61,50.5-50.5,50.5h0c-27.89,0-50.5-22.61-50.5-50.5v-41.87c33.67-.05,67.27-.18,101-1.4Z"/></g></g><path class="cls-28" d="m735.62,418.04c-1.41,12.34-13.22,20.33-24.48,23.01-15.01,3.75-31.66,1.64-45.31,9.88-3.28,1.99-6.2,4.58-8.39,7.74,0,0-.08-.66-.08-.66,0,0,11.75,10.23,11.75,10.23,0,0,.56.48.56.48,0,0-.65.34-.65.34,0,0-5.52,2.85-5.52,2.85,0,0,.27-.42.27-.42-.38,9.1-3.26,18.06-8.25,25.68-3.45,1.79-7.76,1.32-11.27-.06-5.15-1.91-9.4-4.91-14.38-6.69-12.93-4.94-18.12,10.14-23.31,19-2.74,4.81-6.17,10.32-11.57,12.97-1.91.96-4.06,1.51-6.18,1.63l.43-.06c-9.86,2-16.77,12.57-14.48,22.5.67,3.35,2.26,6.61,4.85,9.05,0,0,.02.02.02.02,0,0-.62.78-.62.78.69-1.79.29-.49.44-.88.03,0,.12.02.15.03,0,0,.18.03.18.03,0,0,.35.07.35.07,3.42.71,6.99,1.56,10.34,2.55,1.29.41,2.65.77,3.87,1.46.2.11.58.42.72.79.06.15.11.42.05.66-.16.58-.46.69-.62.81-14.93,8.56-19.66,27.82-16.77,43.91,2.47,14.68,9.39,28.15,15.45,41.71,6.23,13.72,12.29,27.51,18.19,41.37,2.92,6.95,5.84,13.89,8.63,20.9,0,0-.91.42-.91.42-3.49-6.68-6.84-13.43-10.21-20.17-6.66-13.51-13.16-27.1-19.49-40.77-11.1-23.41-24.66-51.9-9.42-76.66,3.21-5.2,7.75-9.62,13.25-12.34,0,0,.3-.16.3-.16-.06.05-.25.1-.39.56-.07.28.03.52.13.67-3.57-1.85-8.58-3.14-12.69-4.47,0,0-.67-.2-.67-.2l-.34-.1s-.16-.04-.16-.04c0,0-.08-.02-.08-.02,0,0-.03,0-.03,0,.13-.4-.31.89.36-.89l-.62.78s-.02-.02-.02-.02c-3.19-2.09-5.54-5.46-6.76-9.15-4.19-12.03,3.84-25.65,16.24-28.36,5.8-.42,9.74-6.17,13.03-12.18,5.02-9.4,11.21-23.46,24.26-22.08,7.92,1.04,13.21,6.53,19.64,10,2.97,1.62,6.22,2.61,9.6,1.8,0,0-.25.2-.25.2,4.84-7.44,7.64-16.19,8.01-25.06,0,0,.01-.29.01-.29l.26-.13,5.52-2.85-.1.82-11.75-10.23s-.34-.3-.34-.3c1.21-1.76,2.61-3.4,4.18-4.85,13.82-12.3,33.61-9.42,50.36-13.54,9.2-2.25,18.38-7.7,22.31-16.64.72-1.76,1.2-3.62,1.42-5.51,0,0,1,.1,1,.1h0Z"/><path class="cls-28" d="m590.93,507.32c-5.56-.69-11.76-3.13-10.9-9.87.44-5.19,4.73-9.8,3.46-15.09-.57-2.87-5.48-5.15-7.26-2.17,0,0-.9-.43-.9-.43.61-1.34.26-2.92-.55-4.22-2.53-4.32-8.73-5.1-10.54-10.07-1.18-3.38.41-7.06,2.87-9.41,2.49-2.36,5.68-3.6,8.7-4.79,0,0,.02-.01.02-.01l-.13.86c-5.04-2.77-10.35-4.34-15.83-6.05-8.2-2.55-17.51-5.79-23.35-12.81-6.08-6.82-6.22-20.16,2.93-24.36,0,0,.03-.01.03-.01l.12.93c-10.65-2.48-17.86-14.65-14.91-25.19,0,0,.96.27.96.27-2.8,9.99,4.07,21.59,14.17,23.94,0,0,1.08.25,1.08.25,0,0-.96.68-.96.68-6.98,4.7-6.11,15.55-.64,21.1,9.79,10.62,27.22,9.79,37.03,20.46,0,0,.67.74.67.74l-.8.12h-.03c-4.4,1.71-9.27,3.74-10.9,8.47-2,5.43,2.8,8.28,6.79,10.75,2.72,1.83,5.63,5.28,4.17,8.76,0,0-.9-.43-.9-.43,1.54-2.92,5.71-2.13,7.67-.11,3.46,3.65.97,9.08-.62,12.98-2.19,4.98-2.36,10.49,3.65,12.53,1.6.6,3.31.93,5.04,1.2,0,0-.16.99-.16.99h0Z"/><g><path class="cls-8" d="m890.85,629.91h85.54c-2.7,11.59-3.29,23.49-1.84,35.22-18.69.03-37.37.08-56.06.08h-28.6c1.71-11.71,1.75-23.53.95-35.3Z"/><path class="cls-8" d="m929.42,665.39h85.54c-2.7,11.59-3.29,23.49-1.84,35.22-18.69.03-37.37.08-56.06.08h-28.6c1.71-11.71,1.75-23.53.95-35.3Z"/><path class="cls-8" d="m1015.42,594.39h85.54c-2.7,11.59-3.29,23.49-1.84,35.22-18.69.03-37.37.08-56.06.08h-28.6c1.71-11.71,1.75-23.53.95-35.3Z"/><path class="cls-8" d="m1052.42,559.39h85.54c-2.7,11.59-3.29,23.49-1.84,35.22-18.69.03-37.37.08-56.06.08h-28.6c1.71-11.71,1.75-23.53.95-35.3Z"/><path class="cls-8" d="m896.42,769.39h85.54c-2.7,11.59-3.29,23.49-1.84,35.22-18.69.03-37.37.08-56.06.08h-28.6c1.71-11.71,1.75-23.53.95-35.3Z"/><path class="cls-8" d="m1064.42,716.39h85.54c-2.7,11.59-3.29,23.49-1.84,35.22-18.69.03-37.37.08-56.06.08h-28.6c1.71-11.71,1.75-23.53.95-35.3Z"/><path class="cls-8" d="m1187.01,786.69h-85.54c2.7-11.59,3.29-23.49,1.84-35.22,18.69-.03,37.37-.08,56.06-.08h28.6c-1.71,11.71-1.75,23.53-.95,35.3Z"/><path class="cls-8" d="m1128.42,681.39h85.54c-2.7,11.59-3.29,23.49-1.84,35.22-18.69.03-37.37.08-56.06.08h-28.6c1.71-11.71,1.75-23.53.95-35.3Z"/><path class="cls-8" d="m1042.42,787.39h85.54c-2.7,11.59-3.29,23.49-1.84,35.22-18.69.03-37.37.08-56.06.08h-28.6c1.71-11.71,1.75-23.53.95-35.3Z"/></g><g><path class="cls-8" d="m1282.85,776.91h85.54c-2.7,11.59-3.29,23.49-1.84,35.22-18.69.03-37.37.08-56.06.08h-28.6c1.71-11.71,1.75-23.53.95-35.3Z"/><path class="cls-8" d="m1321.42,812.39h85.54c-2.7,11.59-3.29,23.49-1.84,35.22-18.69.03-37.37.08-56.06.08h-28.6c1.71-11.71,1.75-23.53.95-35.3Z"/><path class="cls-8" d="m1407.42,741.39h85.54c-2.7,11.59-3.29,23.49-1.84,35.22-18.69.03-37.37.08-56.06.08h-28.6c1.71-11.71,1.75-23.53.95-35.3Z"/><path class="cls-8" d="m1444.42,706.39h85.54c-2.7,11.59-3.29,23.49-1.84,35.22-18.69.03-37.37.08-56.06.08h-28.6c1.71-11.71,1.75-23.53.95-35.3Z"/><path class="cls-8" d="m1288.42,916.39h85.54c-2.7,11.59-3.29,23.49-1.84,35.22-18.69.03-37.37.08-56.06.08h-28.6c1.71-11.71,1.75-23.53.95-35.3Z"/><path class="cls-8" d="m1456.42,863.39h85.54c-2.7,11.59-3.29,23.49-1.84,35.22-18.69.03-37.37.08-56.06.08h-28.6c1.71-11.71,1.75-23.53.95-35.3Z"/><path class="cls-8" d="m1579.01,933.69h-85.54c2.7-11.59,3.29-23.49,1.84-35.22,18.69-.03,37.37-.08,56.06-.08h28.6c-1.71,11.71-1.75,23.53-.95,35.3Z"/><path class="cls-8" d="m1520.42,828.39h85.54c-2.7,11.59-3.29,23.49-1.84,35.22-18.69.03-37.37.08-56.06.08h-28.6c1.71-11.71,1.75-23.53.95-35.3Z"/><path class="cls-8" d="m1434.42,934.39h85.54c-2.7,11.59-3.29,23.49-1.84,35.22-18.69.03-37.37.08-56.06.08h-28.6c1.71-11.71,1.75-23.53.95-35.3Z"/></g><g><path class="cls-8" d="m792.85,801.91h85.54c-2.7,11.59-3.29,23.49-1.84,35.22-18.69.03-37.37.08-56.06.08h-28.6c1.71-11.71,1.75-23.53.95-35.3Z"/><path class="cls-8" d="m831.42,837.39h85.54c-2.7,11.59-3.29,23.49-1.84,35.22-18.69.03-37.37.08-56.06.08h-28.6c1.71-11.71,1.75-23.53.95-35.3Z"/><path class="cls-8" d="m954.42,731.39h85.54c-2.7,11.59-3.29,23.49-1.84,35.22-18.69.03-37.37.08-56.06.08h-28.6c1.71-11.71,1.75-23.53.95-35.3Z"/><path class="cls-8" d="m798.42,941.39h85.54c-2.7,11.59-3.29,23.49-1.84,35.22-18.69.03-37.37.08-56.06.08h-28.6c1.71-11.71,1.75-23.53.95-35.3Z"/><path class="cls-8" d="m966.42,888.39h85.54c-2.7,11.59-3.29,23.49-1.84,35.22-18.69.03-37.37.08-56.06.08h-28.6c1.71-11.71,1.75-23.53.95-35.3Z"/><path class="cls-8" d="m1089.01,958.69h-85.54c2.7-11.59,3.29-23.49,1.84-35.22,18.69-.03,37.37-.08,56.06-.08h28.6c-1.71,11.71-1.75,23.53-.95,35.3Z"/><path class="cls-8" d="m1030.42,853.39h85.54c-2.7,11.59-3.29,23.49-1.84,35.22-18.69.03-37.37.08-56.06.08h-28.6c1.71-11.71,1.75-23.53.95-35.3Z"/><path class="cls-8" d="m944.42,959.39h85.54c-2.7,11.59-3.29,23.49-1.84,35.22-18.69.03-37.37.08-56.06.08h-28.6c1.71-11.71,1.75-23.53.95-35.3Z"/></g><path class="cls-26" d="m1944.96,489.15c3.3,14.08-7,28.49-20.02,34.8s-28.04,6.46-42.51,6.48c-346.8.58-693.61,1.16-1040.41,1.75-14.16.02-33.01-.18-41.63-13.61-7.22-11.26-4.33-24.73,7.39-30.61,12.91-6.48,32.42-3.16,46.15-3.11,21.1.08,42.19.17,63.29.25,83.38.33,166.77.66,250.15.99,165.76.65,331.53,1.31,497.29,1.96,93.43.37,186.86.74,280.29,1.11Z"/><path class="cls-28" d="m1304.84,779.74c-1.41,12.34-13.22,20.33-24.48,23.01-15.01,3.75-31.66,1.64-45.31,9.88-3.28,1.99-6.2,4.58-8.39,7.74,0,0-.08-.66-.08-.66,0,0,11.75,10.23,11.75,10.23,0,0,.56.48.56.48,0,0-.65.34-.65.34,0,0-5.52,2.85-5.52,2.85,0,0,.27-.42.27-.42-.38,9.1-3.26,18.06-8.25,25.68-3.45,1.79-7.76,1.32-11.27-.06-5.15-1.91-9.4-4.91-14.38-6.69-12.93-4.94-18.12,10.14-23.31,19-2.74,4.81-6.17,10.32-11.57,12.97-1.91.96-4.06,1.51-6.18,1.63l.43-.06c-9.86,2-16.77,12.57-14.48,22.5.67,3.35,2.26,6.61,4.85,9.05,0,0,.02.02.02.02,0,0-.62.78-.62.78.69-1.79.29-.49.44-.88.03,0,.12.02.15.03,0,0,.18.03.18.03,0,0,.35.07.35.07,3.42.71,6.99,1.56,10.34,2.55,1.29.41,2.65.77,3.87,1.46.2.11.58.42.72.79.06.15.11.42.05.66-.16.58-.46.69-.62.81-14.93,8.56-19.66,27.82-16.77,43.91,2.47,14.68,9.39,28.15,15.45,41.71,6.23,13.72,12.29,27.51,18.19,41.37,2.92,6.95,5.84,13.89,8.63,20.9,0,0-.91.42-.91.42-3.49-6.68-6.84-13.43-10.21-20.17-6.66-13.51-13.16-27.1-19.49-40.77-11.1-23.41-24.66-51.9-9.42-76.66,3.21-5.2,7.75-9.62,13.25-12.34,0,0,.3-.16.3-.16-.06.05-.25.1-.39.56-.07.28.03.52.13.67-3.57-1.85-8.58-3.14-12.69-4.47,0,0-.67-.2-.67-.2l-.34-.1s-.16-.04-.16-.04c0,0-.08-.02-.08-.02,0,0-.03,0-.03,0,.13-.4-.31.89.36-.89l-.62.78s-.02-.02-.02-.02c-3.19-2.09-5.54-5.46-6.76-9.15-4.19-12.03,3.84-25.65,16.24-28.36,5.8-.42,9.74-6.17,13.03-12.18,5.02-9.4,11.21-23.46,24.26-22.08,7.92,1.04,13.21,6.53,19.64,10,2.97,1.62,6.22,2.61,9.6,1.8,0,0-.25.2-.25.2,4.84-7.44,7.64-16.19,8.01-25.06,0,0,.01-.29.01-.29l.26-.13,5.52-2.85-.1.82-11.75-10.23s-.34-.3-.34-.3c1.21-1.76,2.61-3.4,4.18-4.85,13.82-12.3,33.61-9.42,50.36-13.54,9.2-2.25,18.38-7.7,22.31-16.64.72-1.76,1.2-3.62,1.42-5.51,0,0,1,.1,1,.1h0Z"/><path class="cls-28" d="m1554.72,1063.05c9.83-1.38,20.86-4.91,19.43-16.95-1.02-10.14-9.34-19.19-6.63-29.83.44-1.77,1.45-3.52,2.79-4.79,3.78-3.89,11.84-5.42,14.81.22,0,0-1.74.83-1.74.83-2.81-6.71,2.82-13.38,8.06-16.91,2.66-1.8,5.39-3.36,7.82-5.23,8.64-6.05,7.46-16.24.4-23-4.45-4.21-10.35-6.57-16.19-8.86-.01,0-1.45-.33-1.47-.34,0,0,1.21-1.33,1.21-1.33,20.63-22.54,59.23-18.63,76.02-45.6,6.09-10.91,5.47-27.24-5.76-34.64,0,0-1.93-1.3-1.94-1.31,15.63-2.7,27.8-16.6,30.26-32.01.8-4.89.6-9.96-.75-14.72,0,0,1.86-.52,1.86-.52,5.7,20.34-8.21,43.84-28.78,48.63.01,0,.21-1.83.24-1.79,13.44,5.84,16.63,23.42,12.02,36.17-3.54,9.65-11.37,17.16-19.83,22.46-19.66,12.28-42.22,14-62.14,24.84.01,0-.28-1.71-.23-1.65,5.93,2.33,12.07,4.77,16.82,9.25,7.96,7.62,9.01,19.14-.55,25.93-4.93,3.81-11.01,6.2-14.24,11.7-1.55,2.51-2.24,5.56-1.06,8.14l-1.74.83c-3.45-5.74-12.9-1.35-14.02,4.19-1.68,6.5,1.51,13.02,3.92,19.05,2.55,6.32,4.72,14.35.46,20.49-4.28,6.06-11.99,7.5-18.74,8.64,0,0-.3-1.91-.3-1.91h0Z"/><g><g><rect x="814.36" y="1116.21" width="320.06" height="18.35" rx="9.17" ry="9.17" transform="translate(2012.69 58.69) rotate(85.11)"/><rect x="694" y="1274" width="310" height="23" rx="11.5" ry="11.5"/><g><circle cx="714.68" cy="1288.64" r="30"/><circle class="cls-14" cx="714.68" cy="1288.64" r="15"/><path class="cls-11" d="m675.59,1290.18c.02-21.22,17.48-38.67,38.71-38.67s38.71,17.47,38.71,38.71"/><path d="m1026.29,1269.41c-7.21-12-20.35-20.05-35.34-20.05-22.7,0-41.19,18.47-41.21,41.17,0,1.38,1.12,2.5,2.5,2.5h0c1.38,0,2.5-1.12,2.5-2.5.02-19.95,16.26-36.17,36.21-36.17,13.75,0,25.74,7.71,31.86,19.03,1.38-1.05,2.57-2.39,3.48-3.98Z"/><circle cx="990.48" cy="1288.23" r="30"/><circle class="cls-14" cx="990.48" cy="1288.23" r="15"/></g><circle class="cls-15" cx="963" cy="992" r="7.5"/><path class="cls-25" d="m769,1282c60,1,120-4,180-2,3.45,0,6.66-2.92,8.43-6h-200.24c1.87,5.02,5.65,8,11.82,8Z"/></g><circle class="cls-33" cx="714.5" cy="1288.5" r="2.5"/><circle class="cls-33" cx="990.5" cy="1288.5" r="2.5"/><path class="cls-24" d="m851.29,682.4l6.26,10.59c.66,1.12.08,2.56-1.17,2.9l-6.56,1.79,1.47-15.28Z"/><path class="cls-19" d="m781.02,717.9c7.66,20.05,11.99,41.37,12.78,62.82.14,3.8.38,8.08,3.24,10.58,1.94,1.69,4.64,2.14,7.18,2.51,3.78.56,7.57,1.11,11.35,1.67,2.85.42,6,.77,8.38-.83,2.75-1.86,3.41-5.58,3.57-8.9.52-11.11-1.89-22.4.38-33.29,1.57-7.55,5.32-14.51,9.92-20.7,2.05-2.77,4.28-5.41,6.67-7.89,1.32-1.38,2.7-2.72,3.79-4.3,2.93-4.26,3.39-9.68,3.76-14.84.52-7.21,1.03-14.48.04-21.64-1-7.16-3.63-14.29-8.65-19.49-5.37-5.56-13.98-6.33-21.71-6.53-7.73-.2-15.42,1.06-22.98,2.66-4.81,1.02-9.64,2.19-14.07,4.34s-8.47,5.36-10.83,9.68c-2.19,3.99-2.83,8.72-2.3,13.24.53,4.52,2.18,8.86,4.32,12.87,1.52,2.86,3.3,5.59,4.51,8.59,1.21,3,1.55,6.33.65,9.44Z"/><path d="m813.37,667.9c12.35-2.82,25.55,5.03,38.25,2.23,10.86-2.94,21.01-19.2,19.31-29.32-.89-8.93-9.51-5.94-14.46-1.75-10.04,5.15-21.12-1.86-31.41-2.72-7.44-.6-14.75,1.75-22.17,2.45-8.69.76-18.07-.36-26.14,3.49-17.62,11.74-23.8,40.75-7.03,55.69,3.96,2.39,11.32,29.52,15.37,23.25,3.2-10.26,2.5-22.57-1.29-32.59-4.2-6.5-11.01-21.14,2.67-20.31,9.29,2.1,1.74,10.81,5.96,15.65,4.81,4.76,15.82,3.24,15.38,12.36-.08,5.37,3.24,10.5,2.06,15.86-19.03,10.7-5.82,25.73,9.66,30.25,14.26,3.56,27.16,13.22,35.24,6.15,7.24-13.71,6.93-32.32-1.84-45.3-6.43-9.21-11.05,4.96-15.71,8.38-6.61,5.21-17.16-3.63-19.51-9.69,0,0-3.9-17.87-3.9-17.87-1.05-5.36-6.65-12.09-.44-16.23Z"/><path class="cls-24" d="m830.33,677.74l15.72,3.49"/><path class="cls-19" d="m821,670c-3-2-9,1-7,5,4,5,6,11,5,17-1,1-2,3-4,2-10-9-14-24-8-34,.34-.71.71-1.36,1.1-1.98-3.14.47-6.26,1.06-9.36,1.71-4.81,1.02-9.64,2.19-14.07,4.34-4.43,2.15-8.47,5.36-10.83,9.68-2.19,3.99-2.83,8.72-2.3,13.24.53,4.52,2.18,8.86,4.32,12.87,1.52,2.86,3.3,5.59,4.51,8.59s1.55,6.33.65,9.44c7.66,20.05,11.99,41.37,12.78,62.82.14,3.8.38,8.08,3.24,10.58,1.94,1.69,4.64,2.14,7.18,2.51,3.78.56,7.57,1.11,11.35,1.67,2.85.42,6,.77,8.38-.83,2.75-1.86,3.41-5.58,3.57-8.9.52-11.11-1.89-22.4.38-33.29,1.57-7.55,5.32-14.51,9.92-20.7,2.05-2.77,4.28-5.41,6.67-7.89,1.32-1.38,2.7-2.72,3.79-4.3,2.93-4.26,3.39-9.68,3.76-14.84.52-7.21,1.03-14.48.04-21.64-.43-3.07-1.18-6.12-2.26-9.02-9.4,1.96-20.25-.07-28.81-4.07Z"/><path class="cls-24" d="m821.71,657.07c-4.56-.12-9.1.28-13.62.95-.39.62-.76,1.27-1.1,1.98-6,10-2,25,8,34,2,1,3-1,4-2,1-6-1-12-5-17-2-4,4-7,7-5,8.56,4,19.4,6.03,28.81,4.07-1.45-3.88-3.52-7.49-6.39-10.47-5.37-5.56-13.98-6.33-21.71-6.53Z"/><path d="m813.37,667.9c12.35-2.82,25.55,5.03,38.25,2.23,10.86-2.94,21.01-19.2,19.31-29.32-.89-8.93-9.51-5.94-14.46-1.75-10.04,5.15-21.12-1.86-31.41-2.72-7.44-.6-14.75,1.75-22.17,2.45-8.69.76-18.07-.36-26.14,3.49-17.62,11.74-23.8,40.75-7.03,55.69,3.96,2.39,11.32,29.52,15.37,23.25,3.2-10.26,2.5-22.57-1.29-32.59-4.2-6.5-11.01-21.14,2.67-20.31,9.29,2.1,1.74,10.81,5.96,15.65,4.81,4.76,15.82,3.24,15.38,12.36-.08,5.37,3.24,10.5,2.06,15.86-19.03,10.7-5.82,25.73,9.66,30.25,14.26,3.56,27.16,13.22,35.24,6.15,7.24-13.71,6.93-32.32-1.84-45.3-6.43-9.21-11.05,4.96-15.71,8.38-6.61,5.21-17.16-3.63-19.51-9.69,0,0-3.9-17.87-3.9-17.87-1.05-5.36-6.65-12.09-.44-16.23Z"/><path class="cls-24" d="m792,704c-6-14-8-26,4-37,1.37-1.37,1.69-4,1.16-6.92-4.29.95-8.55,2.08-12.49,4-4.43,2.15-8.47,5.36-10.83,9.68-2.19,3.99-2.83,8.72-2.3,13.24.53,4.52,2.18,8.86,4.32,12.87,1.52,2.86,3.3,5.59,4.51,8.59s1.55,6.33.65,9.44c4.94,12.92,8.48,26.37,10.6,40.04,8.81-16.29,8.28-37.49.39-53.94Z"/><path class="cls-37" d="m813.37,667.9c12.35-2.82,25.55,5.03,38.25,2.23,8.3-2.25,16.17-12.27,18.67-21.39-1.33.91-2.76,1.68-4.3,2.26-3,1-8-2-10-1-15,8-27,7-42,2-8-2-17-3-26,3-3,1-6-4-9-2-9,8-14,22-6,33,3,3-5,9,0,12,4.52,3.39,5.21,9.01,4.23,14.52,2.89,6.44,5.8,11.89,7.86,8.7,3.2-10.26,2.5-22.57-1.29-32.59-4.2-6.5-11.01-21.14,2.67-20.31,9.29,2.1,1.74,10.81,5.96,15.65,4.81,4.76,15.82,3.24,15.38,12.36-.08,5.37,3.24,10.5,2.06,15.86-2.81,1.58-4.9,3.26-6.4,4.98,2.23,7.34,10.96,10.25,15.53,14.83,6,6,19-3,25,5,2,1,1,6,4,7,2,1,5-1,7,0,.48.41.92.85,1.32,1.29,5.58-13.28,4.7-30.03-3.38-41.99-6.43-9.21-11.05,4.96-15.71,8.38-6.61,5.21-17.16-3.63-19.51-9.69,0,0-3.9-17.87-3.9-17.87-1.05-5.36-6.65-12.09-.44-16.23Z"/><path d="m870.94,640.81c-.89-8.93-9.51-5.94-14.46-1.75-10.04,5.15-21.12-1.86-31.41-2.72-7.44-.6-14.75,1.75-22.17,2.45-8.69.76-18.07-.36-26.14,3.49-17.62,11.74-23.8,40.75-7.03,55.69,1.95,1.17,4.72,8.33,7.51,14.55.98-5.51.29-11.14-4.23-14.52-5-3,3-9,0-12-8-11-3-25,6-33,3-2,6,3,9,2,9-6,18-5,26-3,15,5,27,6,42-2,2-1,7,2,10,1,1.54-.58,2.97-1.34,4.3-2.26.77-2.82,1.04-5.55.64-7.94Z"/><ellipse class="cls-24" cx="833.5" cy="703.5" rx="6.5" ry="5.5"/><g><path class="cls-33" d="m825.81,1303.64c.68.06,1.49.23,1.72.87.22.63-.29,1.26-.78,1.7-2.9,2.62-6.69,4.1-10.55,4.76-3.85.67-7.79.57-11.7.38-2.14-.11-4.3-.24-6.36-.84-2.06-.6-4.03-1.7-5.31-3.41-.8-1.07-2.14-4.4-.02-4.67,2.56-.33,5.35-.05,7.93-.03,5.33.05,10.66.23,15.98.56,3.03.18,6.06.41,9.08.69Z"/><polygon class="cls-31" points="799.77 1304.45 821.74 1302.96 822.96 1312.93 799.99 1314.44 799.77 1304.45"/><path d="m804.19,1319.12c-2.33-.13-4.67-.31-7.02-.36,3.68,1.38,8.68,1.19,15.12.53-2.7,0-5.41-.03-8.1-.18Z"/><path class="cls-38" d="m850.43,1322.56c1.15-1.53,1.51-3.82-.13-4.87-1.03-.66-2.46-.59-3.77-.49-10.73.83-21.49,1.94-32.21,2.1,2.49.87,5,2.52,6.18,2.39,9.9-.12,19.79-.24,29.1,1.81.3-.29.58-.6.83-.93Z"/><path class="cls-38" d="m814.32,1319.29c-.68,0-1.35,0-2.03,0-6.44.65-11.44.85-15.12-.53-1.91-.04-3.81.01-5.71.28-1.69.23-3.52.29-3.17,2.08.29,1.5,1.44,2.84,2.88,3.66,1.99,1.13,4.51,1.43,6.94,1.28,1.59-.1,3.18-.38,4.66-.92,1.03.73,2.47.82,3.82.89,8.71.41,17.42.81,26.13,1.22,3.21.15,6.47.3,9.64-.29,2.73-.51,5.42-1.64,7.25-3.45-9.31-2.05-19.2-1.93-29.1-1.81-1.19.13-3.69-1.53-6.18-2.39Z"/><path class="cls-25" d="m813.86,1319.13c-14.85,1.6-22.51,1.36-24.31-12.98-2.24,4.93-2.42,9.95-.87,15.7,1.78,2.88,11.72,1.01,12.82.8,8.6.35,19.79.75,33.2,1.09,4.73.12,9.1.2,12.31-.75-8.55-1.52-17.53-1.41-26.52-1.3-1.26.14-4.01-1.75-6.64-2.56Z"/><path class="cls-25" d="m852.1,1318.25c.4-1.46.3-3-.25-4.39-1.2-3.01-3.74-3.99-8.6-5.54-4.07-1.29-9.42-2.86-15.88-4.42-.66-.16-1.38.08-1.77.58-.4.49-.94,1.05-1.69,1.57-1.99,1.38-4.11,1.58-4.92,1.62-5.81.63-11.63,1.25-17.44,1.88-2.48.3-4.79-1.33-5.43-3.5-.25-.84-.76-1.59-1.53-2.15-1.11-.8-2.16-1.94-3.36-.88-.66,1.04-1.22,2.08-1.69,3.12,1.8,14.35,9.46,14.59,24.31,12.98,2.63.81,5.38,2.69,6.64,2.56,8.99-.11,17.97-.22,26.52,1.3,2.56-.76,4.39-2.17,5.09-4.73Z"/><path class="cls-33" d="m813.86,1319.13c-14.85,1.6-22.51,1.36-24.31-12.98-2.24,4.93-2.42,9.95-.87,15.7,1.78,2.88,11.72,1.01,12.82.8,8.6.35,19.79.75,33.2,1.09,4.73.12,9.1.2,12.31-.75-8.55-1.52-17.53-1.41-26.52-1.3-1.26.14-4.01-1.75-6.64-2.56Z"/><path class="cls-25" d="m852.1,1318.25c.4-1.46.3-3-.25-4.39-1.2-3.01-3.74-3.99-8.6-5.54-4.07-1.29-9.42-2.86-15.88-4.42-.66-.16-1.38.08-1.77.58-.4.49-.94,1.05-1.69,1.57-1.99,1.38-4.11,1.58-4.92,1.62-5.81.63-11.63,1.25-17.44,1.88-2.48.3-4.79-1.33-5.43-3.5-.25-.84-.76-1.59-1.53-2.15-1.11-.8-2.16-1.94-3.36-.88-.66,1.04-1.22,2.08-1.69,3.12,1.8,14.35,9.46,14.59,24.31,12.98,2.63.81,5.38,2.69,6.64,2.56,8.99-.11,17.97-.22,26.52,1.3,2.56-.76,4.39-2.17,5.09-4.73Z"/><path class="cls-23" d="m830.4,1303.87c-.12,2-1.39,3.89-3.08,4.93-.24.13-.55.05-.68-.2-.13-.24-.05-.54.18-.67,1.61-.83,2.97-2.26,3.32-4.09.03-.16.27-.13.26.03h0Z"/><path class="cls-23" d="m833.71,1303.82c-.12,2-1.39,3.89-3.08,4.93-.24.13-.55.05-.68-.2-.13-.24-.05-.54.18-.67,1.61-.83,2.97-2.26,3.32-4.1.03-.16.27-.13.26.03h0Z"/><path class="cls-23" d="m836.97,1304.19c-.12,2-1.39,3.89-3.08,4.93-.24.13-.55.05-.68-.2-.13-.24-.05-.54.18-.67,1.61-.83,2.97-2.26,3.32-4.1.03-.16.27-.13.26.03h0Z"/></g><g><path class="cls-33" d="m901.94,1261.37c.66.17,1.43.47,1.55,1.14.11.65-.49,1.19-1.05,1.55-3.29,2.11-7.28,2.94-11.19,2.96-3.91.02-7.78-.72-11.6-1.56-2.09-.46-4.2-.95-6.13-1.88-1.93-.93-3.69-2.34-4.68-4.24-.62-1.19-1.38-4.69.75-4.61,2.57.1,5.29.83,7.82,1.28,5.25.92,10.47,1.99,15.67,3.18,2.96.68,5.91,1.41,8.85,2.18Z"/><polygon class="cls-31" points="876.13 1257.87 898.04 1260.03 897.6 1270.07 874.69 1267.77 876.13 1257.87"/><path d="m878.06,1273.07c-2.28-.51-4.56-1.08-6.86-1.51,3.4,1.97,8.36,2.6,14.83,3.02-2.67-.44-5.33-.92-7.96-1.51Z"/><path class="cls-38" d="m923.1,1284.1c1.39-1.32,2.12-3.52.67-4.83-.91-.82-2.33-.99-3.63-1.11-10.72-.95-21.51-1.63-32.12-3.25,2.31,1.27,4.51,3.31,5.7,3.38,9.78,1.51,19.56,3.02,28.4,6.59.34-.24.67-.5.97-.78Z"/><path class="cls-38" d="m888.03,1274.91c-.67-.1-1.33-.22-2-.33-6.46-.42-11.43-1.05-14.83-3.02-1.87-.35-3.76-.62-5.68-.67-1.7-.05-3.52-.3-3.47,1.53.04,1.53.95,3.04,2.24,4.09,1.78,1.45,4.22,2.15,6.63,2.4,1.58.16,3.2.15,4.75-.14.89.89,2.3,1.22,3.62,1.5,8.52,1.84,17.05,3.67,25.57,5.51,3.14.68,6.33,1.36,9.56,1.3,2.77-.05,5.61-.72,7.72-2.2-8.84-3.56-18.62-5.08-28.4-6.59-1.19-.07-3.39-2.12-5.7-3.38Z"/><path class="cls-25" d="m887.6,1274.68c-14.91-.87-22.42-2.37-21.83-16.82-3.02,4.49-4.03,9.42-3.44,15.34,1.28,3.14,11.39,2.93,12.51,2.9,8.42,1.76,19.39,4,32.57,6.56,4.65.9,8.94,1.7,12.27,1.29-8.18-2.91-17.06-4.29-25.94-5.66-1.26-.07-3.67-2.39-6.13-3.62Z"/><path class="cls-25" d="m925.47,1280.13c.63-1.38.79-2.91.48-4.37-.68-3.16-3.03-4.56-7.57-6.88-3.8-1.94-8.82-4.37-14.93-6.98-.63-.27-1.37-.15-1.85.28-.47.42-1.1.88-1.93,1.27-2.19,1.03-4.32.88-5.12.79l-17.51-1.02c-2.5-.11-4.51-2.1-4.77-4.34-.1-.87-.49-1.7-1.15-2.37-.96-.98-1.81-2.27-3.16-1.43-.82.92-1.55,1.85-2.19,2.8-.59,14.45,6.92,15.95,21.83,16.82,2.46,1.23,4.87,3.54,6.13,3.62,8.88,1.37,17.76,2.75,25.94,5.66,2.65-.33,4.69-1.41,5.8-3.83Z"/><path class="cls-33" d="m887.6,1274.68c-14.91-.87-22.42-2.37-21.83-16.82-3.02,4.49-4.03,9.42-3.44,15.34,1.28,3.14,11.39,2.93,12.51,2.9,8.42,1.76,19.39,4,32.57,6.56,4.65.9,8.94,1.7,12.27,1.29-8.18-2.91-17.06-4.29-25.94-5.66-1.26-.07-3.67-2.39-6.13-3.62Z"/><path class="cls-25" d="m925.47,1280.13c.63-1.38.79-2.91.48-4.37-.68-3.16-3.03-4.56-7.57-6.88-3.8-1.94-8.82-4.37-14.93-6.98-.63-.27-1.37-.15-1.85.28-.47.42-1.1.88-1.93,1.27-2.19,1.03-4.32.88-5.12.79l-17.51-1.02c-2.5-.11-4.51-2.1-4.77-4.34-.1-.87-.49-1.7-1.15-2.37-.96-.98-1.81-2.27-3.16-1.43-.82.92-1.55,1.85-2.19,2.8-.59,14.45,6.92,15.95,21.83,16.82,2.46,1.23,4.87,3.54,6.13,3.62,8.88,1.37,17.76,2.75,25.94,5.66,2.65-.33,4.69-1.41,5.8-3.83Z"/><path class="cls-23" d="m906.43,1262.36c-.45,1.95-2.01,3.61-3.85,4.36-.26.09-.55-.05-.64-.31-.09-.25.04-.54.29-.63,1.72-.55,3.3-1.74,3.95-3.49.05-.15.29-.08.25.07h0Z"/><path class="cls-23" d="m909.7,1262.85c-.45,1.95-2.01,3.61-3.85,4.36-.26.09-.55-.05-.64-.31-.09-.26.04-.54.29-.63,1.72-.55,3.3-1.74,3.95-3.49.05-.15.29-.08.25.07h0Z"/><path class="cls-23" d="m912.86,1263.75c-.45,1.95-2.01,3.61-3.85,4.36-.26.09-.55-.05-.64-.31-.09-.25.04-.54.29-.63,1.72-.55,3.3-1.74,3.95-3.49.05-.15.29-.08.25.07h0Z"/></g><path class="cls-21" d="m881,1005c-37.71.06-76.6-.22-114.31-.2,2.57-20.57,6.49-41.97,7.78-62.85.76-12.03.16-24.12-1.2-36.1-2.79-24.32-7.19-48.5-8.69-72.94-.39-6.08-.61-12.13-.62-18.03.02-6.48-.24-11.01,1.48-16.88,5.58-19.21,24.97-30,44.38-27.81,20.46,1.25,40.67,11.64,51.39,29.43,7.21,11.65,10,25.58,9.33,39.19-.46,7.31-1.5,14.83-1.69,22.47-.62,14.56.98,29.27,3.19,43.69,2.97,19.33,6.69,38.62,8.19,58.14,1.18,13.78.65,28.27.76,41.89Z"/><polygon class="cls-40" points="823 1304.93 850 1006.66 776.91 1005 798 1307 823 1304.93"/><path class="cls-39" d="m804.49,1051.3h0s-.03-.02,0,0Z"/><path class="cls-40" d="m841.99,987.3c3.5,1.17,6.89,2.61,9.98,4.55,8.39,5.37,15.34,12.54,22.44,19.44,28.98,29.14,52.71,68.4,50.59,111.29-.32,6.3-1.16,12.53-2.54,18.67-6.5,28.57-12.35,57.29-17.39,86.16-1.85,10.92-3.78,22.74-5.37,33.72,0,0-26.41-1.25-26.41-1.25,0,0-.18-8.98-.18-8.98-.35-38.94,1.54-77.89,5.04-116.67,2.98-32.31-19.66-59.76-43.8-79.12-3.9-3.11-7.94-6.08-12.06-8.87-3.57-2.38-7.02-4.93-9.67-8.29,0,0-.49-.69-.49-.69-.06-.11-.14-.24-.19-.34-.34-.2,30.07-49.34,30.05-49.64h0Z"/><g><path class="cls-19" d="m937.71,968.66c-1.91,1.87-5.62.18-8.57-.84-.81,4.54,6.6,8.38,10.2,8.82,2.8.34,5.58-.05,8.29-.83,1.86,1.75,4.47,3.3,5.73,3.95,1.03.53,2.14.98,3.3.97,1.16-.01,2.38-.59,2.83-1.64.63-1.46-.39-3.09-1.5-4.24-.56-.58-1.47-1.37-2.56-2.15,2.19-1.03,4.44-2.06,6.85-2.18,2.65-.13,5.59,1.16,6.41,3.64.43,1.3.23,2.72.44,4.07.21,1.35,1.1,2.82,2.49,2.89,1.48.08,2.52-1.43,2.97-2.82.25-.77.41-1.56.49-2.35-6.67-14.43-23.69-15.37-37.38-7.29Z"/><path class="cls-24" d="m937.71,968.66c13.69-8.08,30.71-7.14,37.38,7.29.6-5.72-3.07-11.65-8.26-14.6-5.9-3.35-13.2-3.46-19.87-2.12-4.17.84-15.74,3.29-17.56,7.71-.12.29-.2.58-.25.87,2.94,1.01,6.66,2.71,8.57.84Z"/><path class="cls-32" d="m904.48,948.51c-4.09-1.1-12.38-3.33-16.49-4.38-3.93-.92-7.67-2.42-10.97-4.63-31.87-21.82-37.34-94.94-36.68-130,6.21-19.09-11.6-38.81-33.01-36.27-16.89,1.76-29.05,15.9-27.16,31.59,0,0,.91,7.56.91,7.56.26,2.34,1.01,6.52,1.38,8.79,3.47,19.34,8.19,38.26,14.6,57,12.34,34.86,33.17,80.36,75.17,91.29,3.36.83,6.86,1.37,10.32,1.65,5.56.51,11.13,1,16.67,1.61,12.64,1.38,25.33,2.8,38.04,3.99,1.42-5.52,1.1-12.24,4.44-16.88-12.8-5.14-23.93-7.67-37.22-11.3Z"/></g><path class="cls-40" d="m874.41,1011.28c-7.1-6.9-14.05-14.07-22.44-19.44-3.09-1.94-6.48-3.38-9.98-4.55,0,.09-2.77,4.64-6.63,10.95,4.02,2.68,7.22,6.05,8.64,10.76,5,14,5,28,14,39,13,19,30,32,35,54,6,31,4,61-7,89-4.24,10.91-7.39,22.92-12.77,33.14-.15,8.92-.2,17.84-.12,26.76l.18,8.98s26.41,1.25,26.41,1.25c1.59-10.99,3.52-22.8,5.37-33.72,5.04-28.87,10.89-57.6,17.39-86.16,1.38-6.14,2.22-12.37,2.54-18.67,2.12-42.89-21.61-82.16-50.59-111.29Z"/><path class="cls-39" d="m893,1102c-5-22-22-35-35-54-9-11-9-25-14-39-1.41-4.71-4.61-8.08-8.64-10.76-8.92,14.57-23.66,38.55-23.42,38.69.05.1.12.23.19.34l.49.69c2.65,3.36,6.1,5.91,9.67,8.29,4.12,2.78,8.17,5.76,12.06,8.87,24.14,19.36,46.78,46.81,43.8,79.12-2.7,29.89-4.42,59.89-4.92,89.91,5.38-10.22,8.52-22.23,12.77-33.14,11-28,13-58,7-89Z"/><path class="cls-21" d="m880.23,963.11c-1.5-19.51-5.22-38.81-8.19-58.14-2.21-14.42-3.81-29.13-3.19-43.69.19-7.64,1.22-15.15,1.69-22.47.66-13.61-2.12-27.54-9.33-39.19-10.73-17.79-30.94-28.18-51.39-29.43-7.15-.81-14.3.15-20.75,2.64.66,3.39.36,6.77-2.06,10.16-11,14-20,30-15,47,13,42,30,86,10,129-3.14,6.72-7.08,12.64-11.46,18.2-1.32,9.28-2.71,18.52-3.85,27.6,37.71-.02,76.6.25,114.31.2-.12-13.62.42-28.12-.76-41.89Z"/><path class="cls-33" d="m772,830c-5-17,4-33,15-47,2.42-3.39,2.72-6.77,2.06-10.16-11.07,4.27-20.1,13.04-23.63,25.17-1.71,5.87-1.46,10.4-1.48,16.88,0,5.9.22,11.95.62,18.03,1.5,24.44,5.9,48.62,8.69,72.94,1.36,11.97,1.96,24.07,1.2,36.1-.72,11.66-2.26,23.49-3.93,35.25,4.38-5.56,8.33-11.48,11.46-18.2,20-43,3-87-10-129Z"/><path class="cls-39" d="m805,1126c-.95-39.82-24.36-81.43-9.75-120.58l-18.34-.42,19.01,272.25c2.64-10.04,3.6-20.61,4.08-30.25,2-41,6-81,5-121Z"/><path class="cls-40" d="m795.25,1005.42c-14.61,39.15,8.8,80.77,9.75,120.58,1,40-3,80-5,121-.48,9.64-1.43,20.21-4.08,30.25l2.08,29.75,25-2.07,27-298.27-54.75-1.24Z"/><rect class="cls-33" x="766" y="997" width="116" height="12" rx="1.27" ry="1.27"/><path class="cls-19" d="m967.12,975.57c-5.9-3.41-13.2-3.52-19.87-2.15-4.17.85-15.74,3.34-17.56,7.85-2.02,5,6.12,9.38,9.94,9.86,2.8.35,5.58-.05,8.29-.85,1.86,1.78,4.47,3.36,5.73,4.02,1.03.54,2.14,1,3.3.99,1.16-.01,2.38-.6,2.83-1.67.63-1.49-.39-3.15-1.5-4.31-.56-.59-1.47-1.39-2.56-2.19,2.19-1.05,4.44-2.1,6.85-2.22,2.65-.14,5.59,1.18,6.41,3.7.43,1.32.23,2.76.44,4.14.21,1.38,1.1,2.86,2.49,2.94,1.48.08,2.52-1.45,2.97-2.86,2.07-6.49-1.86-13.83-7.76-17.23Z"/><g><path class="cls-19" d="m938,983c-1.91,1.91-5.62.18-8.57-.85-.81,4.62,6.6,8.52,10.2,8.97,2.8.35,5.58-.05,8.29-.85,1.86,1.78,4.47,3.36,5.73,4.02,1.03.54,2.14,1,3.3.99,1.16-.01,2.38-.6,2.83-1.67.63-1.49-.39-3.15-1.5-4.31-.56-.59-1.47-1.39-2.56-2.19,2.19-1.05,4.44-2.1,6.85-2.22,2.65-.14,5.59,1.18,6.41,3.7.43,1.32.23,2.76.44,4.14.21,1.38,1.1,2.86,2.49,2.94,1.48.08,2.52-1.45,2.97-2.86.25-.79.41-1.58.49-2.39-6.67-14.68-23.69-15.63-37.38-7.42Z"/><path class="cls-24" d="m938,983c13.69-8.21,30.71-7.26,37.38,7.42.6-5.82-3.07-11.85-8.26-14.85-5.9-3.41-13.2-3.52-19.87-2.15-4.17.85-15.74,3.34-17.56,7.85-.12.3-.2.59-.25.89,2.94,1.03,6.66,2.76,8.57.85Z"/><path class="cls-33" d="m904.78,962.51c-4.09-1.12-12.38-3.39-16.49-4.46-3.93-.93-7.67-2.46-10.97-4.71-31.87-22.2-37.34-96.56-36.68-132.22,6.21-19.42-11.6-39.47-33.01-36.89-16.89,1.79-29.05,16.17-27.16,32.12,0,0,.91,7.69.91,7.69.26,2.38,1.01,6.63,1.38,8.94,3.47,19.67,8.19,38.91,14.6,57.97,12.34,35.46,33.17,81.73,75.17,92.85,3.36.84,6.86,1.4,10.32,1.68,5.56.52,11.13,1.02,16.67,1.64,12.64,1.4,25.33,2.85,38.04,4.05,1.42-5.62,1.1-12.45,4.44-17.16-12.8-5.23-23.93-7.8-37.22-11.49Z"/></g></g><g><path class="cls-26" d="m89.03,1139c-42.32-3.33-84.83-3.33-127.15,0-4.95-62.93-9.91-125.86-14.86-188.79,52.21-4.11,104.66-4.11,156.86,0-4.95,62.93-9.91,125.86-14.86,188.79Z"/><path class="cls-26" d="m110,948.95c-56.33-4.43-112.92-4.43-169.25,0-.24-3.07-.48-6.14-.72-9.2,56.81-4.47,113.89-4.47,170.7,0-.24,3.07-.48,6.14-.72,9.2Z"/><path class="cls-12" d="m25.46,939.49l-15.55-.13c.07-8.48,7.07-15.43,15.55-15.43s15.56,7.02,15.56,15.56h-15.56Z"/><path class="cls-26" d="m20.33,947.15c.93,21.22-18.54,38.8-31.85,58.2-10.31,15.33,3.7,30.28,10.04,45.67,1.62,4.01-.51,8.13-3.35,11.61-6.41,6.97-16.52,10.17-21.87,17.96-5.39,7.1-7.59,16.09-5.57,24.76.99,4,3.38,8.58,1.53,12.1-2.06,4.13-4.9,7.52-8.26,10.23.3,3.78.59,7.55.89,11.33,42.32-3.33,84.83-3.33,127.15,0,4.95-62.93,9.91-125.86,14.86-188.79-27.81-2.19-55.69-3.21-83.57-3.07Z"/><g class="cls-18"><path class="cls-43" d="m-27.26,1117.18c2.51-3.56-.43-8.2-1.6-12.24-2.35-8.76.76-17.9,8.2-25.05,7.4-7.86,21.05-10.79,30.07-17.44,4.01-3.36,7.16-7.36,5.25-11.52-7.45-15.99-26.06-31.63-10.88-46.68,19.6-19.11,48.7-34.66,49.28-56.09-35.05-2.76-70.26-2.75-105.31,0,4.71,59.83,9.42,119.65,14.13,179.48,4.34-2.82,8.07-6.28,10.86-10.46Z"/></g><line class="cls-13" x1="79.27" y1="984.56" x2="71.07" y2="1127.71"/><line class="cls-13" x1="48.68" y1="983.45" x2="46.06" y2="1126.75"/><line class="cls-13" x1="16.47" y1="983.47" x2="19.61" y2="1126.76"/></g><g><path class="cls-21" d="m466.77,777.94c-17.61,16.81-24.34,45.69-11.82,66.56,12.81,21.36,41.77,30.8,50.23,54.22,7.96,22.06-5.98,45.57-20.2,64.21s-30.28,39.65-26.86,62.85c2.75,18.63,18.41,33.61,36.28,39.56,17.87,5.95,37.5,4.12,55.69-.75,20.53-5.49,42.45-17.65,46.56-38.51,4.06-20.63-10.97-39.85-15.07-60.47-3.31-16.69,1.01-34.75,11.53-48.13,6.08-7.74,14.01-13.86,20.24-21.48,6.23-7.62,10.79-17.67,8.31-27.2-3.76-14.47-21.49-21.25-26.93-35.17-6.42-16.44,6.8-34.98,2.82-52.17-3.05-13.19-15.89-22.29-29.14-25.07-30.39-6.38-78.75-.31-101.66,21.55Z"/><path class="cls-33" d="m491.92,1005.37c6.28-18.06,3.93-37.68,14.92-54.95,14.92-22.77,32.19-51.03,18.84-76.15-8.64-17.27-32.19-29.83-25.12-51.81,5.5-14.92,22.77-16.49,31.4-28.26,8.49-10.99,6.8-26.74,0-39.79-24.53,1.76-50.27,9.29-65.19,23.53-17.61,16.81-24.34,45.69-11.82,66.56,12.81,21.36,41.77,30.8,50.23,54.22,7.96,22.06-5.98,45.57-20.2,64.21-13.11,17.18-27.76,36.37-27.3,57.44,14.62,4.18,27.71,3.03,34.24-15.01Z"/><path class="cls-21" d="m621.67,868.82c-3.76-14.47-21.49-21.25-26.93-35.17-6.42-16.44,6.8-34.98,2.82-52.17-3.05-13.19-15.89-22.29-29.14-25.07-10.59-2.22-23.35-2.93-36.47-1.99,6.8,13.04,8.48,28.8,0,39.79-8.64,11.78-25.91,13.35-31.4,28.26-7.07,21.98,16.49,34.54,25.12,51.81,13.35,25.12-3.93,53.38-18.84,76.15-10.99,17.27-8.64,36.9-14.92,54.95-6.53,18.04-19.62,19.19-34.24,15.01.04,1.79.18,3.59.44,5.41,2.75,18.63,18.41,33.61,36.28,39.56,17.87,5.95,37.5,4.12,55.69-.75,20.53-5.49,42.45-17.65,46.56-38.51,4.06-20.63-10.97-39.85-15.07-60.47-3.31-16.69,1.01-34.75,11.53-48.13,6.08-7.74,14.01-13.86,20.24-21.48,6.23-7.62,10.79-17.67,8.31-27.2Z"/><path class="cls-6" d="m531.91,1145.52c-15.25-24.73-19.85-54.92-17.6-83.89,2.26-28.97,10.95-57.03,20.71-84.39,5.28-14.8,10.92-29.63,13-45.21,2.08-15.57.25-32.25-8.44-45.34-8.27-12.46-21.7-20.34-32.57-30.61-10.87-10.27-19.64-25.73-14.43-39.75"/><path class="cls-6" d="m535.49,880.94c-3.49-6.03-7.25-18.11-4.97-24.7,1.9-5.49,4.9-7.33,9.68-10.63,11.27-7.77,23.86-20.05,26.39-33.51"/><path class="cls-6" d="m529.81,992.72c-2.13-5.76,0-12.08,1.23-18.1,3.14-15.27.19-31.7-8.05-44.94"/></g><g><path class="cls-21" d="m155.37,980.48c9.27,7.35,12.81,19.99,6.22,29.13-6.74,9.35-21.99,13.48-26.44,23.73-4.19,9.65,3.15,19.94,10.63,28.1s15.94,17.35,14.13,27.5c-1.45,8.15-9.69,14.71-19.1,17.31s-19.74,1.8-29.31-.33c-10.81-2.4-22.34-7.72-24.5-16.85-2.14-9.03,5.78-17.44,7.93-26.46,1.74-7.31-.53-15.21-6.07-21.06-3.2-3.39-7.37-6.06-10.65-9.4-3.28-3.33-5.68-7.73-4.38-11.9,1.98-6.33,11.31-9.3,14.17-15.39,3.38-7.19-3.58-15.3-1.49-22.83,1.61-5.77,8.36-9.76,15.34-10.97,15.99-2.79,41.45-.14,53.51,9.43Z"/><path class="cls-33" d="m142.14,1080c-3.31-7.9-2.07-16.49-7.85-24.05-7.85-9.96-16.94-22.33-9.92-33.32,4.55-7.56,16.94-13.05,13.22-22.67-2.89-6.53-11.98-7.21-16.53-12.37-4.47-4.81-3.58-11.7,0-17.41,12.91.77,26.46,4.06,34.31,10.3,9.27,7.35,12.81,19.99,6.22,29.13-6.74,9.35-21.99,13.48-26.44,23.73-4.19,9.65,3.15,19.94,10.63,28.1,6.9,7.52,14.61,15.92,14.37,25.13-7.69,1.83-14.59,1.33-18.02-6.57Z"/><path class="cls-21" d="m73.84,1020.24c1.98-6.33,11.31-9.3,14.17-15.39,3.38-7.19-3.58-15.3-1.49-22.83,1.61-5.77,8.36-9.76,15.34-10.97,5.57-.97,12.29-1.28,19.19-.87-3.58,5.71-4.47,12.6,0,17.41,4.55,5.15,13.64,5.84,16.53,12.37,3.72,9.62-8.68,15.11-13.22,22.67-7.02,10.99,2.07,23.36,9.92,33.32,5.78,7.56,4.55,16.15,7.85,24.05,3.43,7.89,10.33,8.4,18.02,6.57-.02.78-.09,1.57-.23,2.37-1.45,8.15-9.69,14.71-19.1,17.31-9.41,2.6-19.74,1.8-29.31-.33-10.81-2.4-22.34-7.72-24.5-16.85-2.14-9.03,5.78-17.44,7.93-26.46,1.74-7.31-.53-15.21-6.07-21.06-3.2-3.39-7.37-6.06-10.65-9.4-3.28-3.33-5.68-7.73-4.38-11.9Z"/><path class="cls-4" d="m121.09,1141.32c8.03-10.82,10.45-24.03,9.26-36.71-1.19-12.67-5.76-24.95-10.9-36.93-2.78-6.48-5.75-12.97-6.84-19.78s-.13-14.11,4.44-19.84c4.35-5.45,11.42-8.9,17.14-13.4s10.33-11.26,7.6-17.39"/><path class="cls-4" d="m119.21,1025.55c1.83-2.64,3.82-7.93,2.61-10.81-1-2.4-2.58-3.21-5.09-4.65-5.93-3.4-12.56-8.77-13.89-14.66"/><path class="cls-4" d="m122.2,1074.46c1.12-2.52,0-5.29-.65-7.92-1.65-6.68-.1-13.87,4.24-19.66"/></g><g><path class="cls-21" d="m1716.2,273.79c-41.04,39.16-56.71,106.46-27.53,155.1,29.85,49.77,97.33,71.77,117.04,126.35,18.56,51.39-13.94,106.18-47.08,149.63-33.14,43.45-70.56,92.39-62.58,146.44,6.41,43.42,42.9,78.31,84.54,92.18,41.64,13.87,87.38,9.59,129.77-1.75,47.84-12.79,98.92-41.13,108.48-89.73,9.47-48.08-25.57-92.85-35.11-140.91-7.72-38.9,2.36-80.98,26.87-112.15,14.18-18.03,32.65-32.28,47.17-50.04,14.52-17.76,25.15-41.17,19.37-63.37-8.76-33.71-50.07-49.52-62.75-81.96-14.97-38.31,15.85-81.5,6.58-121.57-7.11-30.73-37.03-51.95-67.9-58.43-70.81-14.86-183.5-.73-236.88,50.2Z"/><path class="cls-33" d="m1774.8,803.74c14.63-42.07,9.15-87.81,34.76-128.05,34.76-53.05,75-118.9,43.9-177.44-20.12-40.24-75-69.51-58.54-120.73,12.8-34.76,53.05-38.41,73.17-65.85,19.79-25.61,15.85-62.32.02-92.71-57.16,4.1-117.13,21.65-151.91,54.84-41.04,39.16-56.71,106.46-27.53,155.1,29.85,49.77,97.33,71.77,117.04,126.35,18.56,51.39-13.94,106.18-47.08,149.63-30.54,40.04-64.69,84.76-63.61,133.83,34.06,9.74,64.58,7.07,79.78-34.97Z"/><path class="cls-21" d="m2077.15,485.55c-8.76-33.71-50.07-49.52-62.75-81.96-14.97-38.31,15.85-81.5,6.58-121.57-7.11-30.73-37.03-51.95-67.9-58.43-24.67-5.18-54.42-6.82-84.97-4.63,15.83,30.39,19.77,67.1-.02,92.71-20.12,27.44-60.37,31.1-73.17,65.85-16.46,51.22,38.41,80.49,58.54,120.73,31.1,58.54-9.15,124.39-43.9,177.44-25.61,40.24-20.12,85.98-34.76,128.05-15.21,42.04-45.72,44.71-79.78,34.97.09,4.17.41,8.37,1.03,12.61,6.41,43.42,42.9,78.31,84.54,92.18,41.64,13.87,87.38,9.59,129.77-1.75,47.84-12.79,98.92-41.13,108.48-89.73,9.47-48.08-25.57-92.85-35.11-140.91-7.72-38.9,2.36-80.98,26.87-112.15,14.18-18.03,32.65-32.28,47.17-50.04,14.52-17.76,25.15-41.17,19.37-63.37Z"/><path class="cls-3" d="m1867.99,1130.31c-35.54-57.62-46.26-127.98-41.01-195.47,5.26-67.49,25.52-132.88,48.25-196.65,12.29-34.48,25.45-69.05,30.28-105.34,4.84-36.29.59-75.14-19.66-105.64-19.27-29.03-50.57-47.41-75.89-71.34-25.32-23.93-45.75-59.96-33.63-92.63"/><path class="cls-3" d="m1876.33,513.8c-8.12-14.06-16.9-42.21-11.58-57.55,4.43-12.78,11.41-17.09,22.55-24.77,26.26-18.11,55.61-46.72,61.5-78.08"/><path class="cls-3" d="m1863.09,774.26c-4.96-13.41-.02-28.16,2.86-42.17,7.31-35.58.45-73.87-18.75-104.71"/></g><path class="cls-7" d="m1135.25,1127.38c-14.64-22.75-26.51-47.29-35.25-72.89-3.76-11.02-6.89-23.38-2.11-34,7.99-17.73,31.56-19.86,50.68-23.4,22.76-4.22,45.36-14.84,58.69-33.78,20.3-28.85,14.32-67.64,16.83-102.83,2.65-37.02,15.92-73.22,37.83-103.17,11.7-15.99,26.18-31,30.93-50.24,7.52-30.47-11.72-61.03-33.46-83.65"/><path class="cls-7" d="m1273.91,892.49c8.23-19.55,31.02-31.78,51.86-27.82,18.95,3.6,34.95,18.68,54.23,19.04,17.67.33,33.1-11.92,44.51-25.42,11.41-13.5,20.76-29.09,34.86-39.75,13.6-10.28,30.68-15.14,47.67-16.6,16.99-1.46,34.07.28,51.03,2.01"/><path class="cls-7" d="m1525.59,768.56c11.75-5.03,25.29,2.47,33.78,12.03,8.49,9.56,14.46,21.45,24.48,29.4,7.36,5.84,16.5,9.18,23.65,15.28,13.63,11.62,17.67,31.25,16.33,49.11s-7.13,35.09-9.61,52.83c-3.82,27.24.88,56.67,17.92,78.26,11.22,14.22,26.88,24.12,40.62,35.93s26.29,27.11,27.5,45.19c.7,10.46-1.61,23.22,6.78,29.52"/><path class="cls-7" d="m1670.32,814.17c-17.01-4.66-27.89-21.87-31.61-39.1-2.48-11.51-2.47-23.74,1.45-34.84,7.05-19.99,25.25-33.47,41.4-47.2,14.01-11.91,27.35-25.16,35.91-41.43,8.57-16.27,11.89-36.05,5.41-53.26"/><path class="cls-21" d="m1169.85,986.85c3.27-.14,6.59,1.21,8.59,4.07,1.82,2.6,2.42,6.14,4.02,8.94,2.17,3.8,5.92,5.86,9.6,7.48-4.24-2.7-9.6-1.68-14.49-.38s-10.07,2.83-14.66.98c-2.15-.86-4.09-2.52-5.1-4.88s-.97-5.46.41-7.74c2.51,1.26,5.1,2.31,7.76,3.14-1.21-.23-2.83-2.03-3.87-2.78-1.34-.96-2.8-1.83-4.04-2.94,2.99-3.52,7.71-5.74,11.77-5.91Z"/><path class="cls-21" d="m1182.94,971.39c.37-2.33,1.8-4.49,4.11-5.5,2.1-.92,4.7-.84,6.91-1.57,3-.99,4.99-3.36,6.67-5.73-2.52,2.62-2.56,6.56-2.34,10.21.23,3.65.57,7.54-1.4,10.53-.92,1.4-2.37,2.53-4.18,2.91s-4.01-.1-5.42-1.4c1.25-1.6,2.36-3.29,3.33-5.05-.33.82-1.84,1.71-2.52,2.34-.87.81-1.7,1.72-2.66,2.44-2.06-2.62-2.97-6.28-2.51-9.19Z"/><path class="cls-21" d="m1207.98,942.75c-2.44-1.24-4.3-3.58-4.58-6.49-.26-2.64.76-5.46.75-8.16-.02-3.65-1.91-6.69-3.92-9.38,1.98,3.7,6.3,5.16,10.39,6.22,4.09,1.05,8.49,2.07,11.08,5.3,1.21,1.51,1.94,3.51,1.71,5.64s-1.54,4.37-3.47,5.46c-1.31-1.94-2.77-3.77-4.36-5.47.79.66,1.23,2.64,1.68,3.61.58,1.25,1.29,2.48,1.73,3.8-3.62,1.33-7.96,1.02-11-.52Z"/><path class="cls-21" d="m1218.06,898.14c.37-2.33,1.8-4.49,4.11-5.5,2.1-.92,4.7-.84,6.91-1.57,3-.99,4.99-3.36,6.67-5.73-2.52,2.62-2.56,6.56-2.34,10.21.23,3.65.57,7.54-1.4,10.53-.92,1.4-2.37,2.53-4.18,2.91s-4.01-.1-5.42-1.4c1.25-1.6,2.36-3.29,3.33-5.05-.33.82-1.84,1.71-2.52,2.34-.87.81-1.7,1.72-2.66,2.44-2.06-2.62-2.97-6.28-2.51-9.19Z"/><path class="cls-21" d="m1368.06,875.14c.37-2.33,1.8-4.49,4.11-5.5,2.1-.92,4.7-.84,6.91-1.57,3-.99,4.99-3.36,6.67-5.73-2.52,2.62-2.56,6.56-2.34,10.21.23,3.65.57,7.54-1.4,10.53-.92,1.4-2.37,2.53-4.18,2.91s-4.01-.1-5.42-1.4c1.25-1.6,2.36-3.29,3.33-5.05-.33.82-1.84,1.71-2.52,2.34-.87.81-1.7,1.72-2.66,2.44-2.06-2.62-2.97-6.28-2.51-9.19Z"/><path class="cls-21" d="m1487.06,795.14c.37-2.33,1.8-4.49,4.11-5.5,2.1-.92,4.7-.84,6.91-1.57,3-.99,4.99-3.36,6.67-5.73-2.52,2.62-2.56,6.56-2.34,10.21.23,3.65.57,7.54-1.4,10.53-.92,1.4-2.37,2.53-4.18,2.91s-4.01-.1-5.42-1.4c1.25-1.6,2.36-3.29,3.33-5.05-.33.82-1.84,1.71-2.52,2.34-.87.81-1.7,1.72-2.66,2.44-2.06-2.62-2.97-6.28-2.51-9.19Z"/><path class="cls-21" d="m1660.36,1025.34c.37-2.33,1.8-4.49,4.11-5.5,2.1-.92,4.7-.84,6.91-1.57,3-.99,4.99-3.36,6.67-5.73-2.52,2.62-2.56,6.56-2.34,10.21.23,3.65.57,7.54-1.4,10.53-.92,1.4-2.37,2.53-4.18,2.91s-4.01-.1-5.42-1.4c1.25-1.6,2.36-3.29,3.33-5.05-.33.82-1.84,1.71-2.52,2.34-.87.81-1.7,1.72-2.66,2.44-2.06-2.62-2.97-6.28-2.51-9.19Z"/><path class="cls-21" d="m1610.36,953.34c.37-2.33,1.8-4.49,4.11-5.5,2.1-.92,4.7-.84,6.91-1.57,3-.99,4.99-3.36,6.67-5.73-2.52,2.62-2.56,6.56-2.34,10.21.23,3.65.57,7.54-1.4,10.53-.92,1.4-2.37,2.53-4.18,2.91s-4.01-.1-5.42-1.4c1.25-1.6,2.36-3.29,3.33-5.05-.33.82-1.84,1.71-2.52,2.34-.87.81-1.7,1.72-2.66,2.44-2.06-2.62-2.97-6.28-2.51-9.19Z"/><path class="cls-21" d="m1642.36,783.34c.37-2.33,1.8-4.49,4.11-5.5,2.1-.92,4.7-.84,6.91-1.57,3-.99,4.99-3.36,6.67-5.73-2.52,2.62-2.56,6.56-2.34,10.21.23,3.65.57,7.54-1.4,10.53-.92,1.4-2.37,2.53-4.18,2.91s-4.01-.1-5.42-1.4c1.25-1.6,2.36-3.29,3.33-5.05-.33.82-1.84,1.71-2.52,2.34-.87.81-1.7,1.72-2.66,2.44-2.06-2.62-2.97-6.28-2.51-9.19Z"/><path class="cls-21" d="m1604.01,926.13c-1.69-1.65-2.62-4.07-2.1-6.54.47-2.24,2.04-4.31,2.73-6.54.93-3.02.16-6.02-.8-8.76.67,3.57,3.86,5.89,6.96,7.82,3.11,1.93,6.47,3.91,7.77,7.24.61,1.56.69,3.4-.05,5.1s-2.4,3.21-4.28,3.6c-.58-1.94-1.31-3.83-2.18-5.64.48.75.33,2.5.45,3.41.15,1.18.42,2.38.45,3.58-3.33.16-6.84-1.22-8.94-3.28Z"/><path class="cls-21" d="m1411.66,857.75c-1.69-1.65-2.62-4.07-2.1-6.54.47-2.24,2.04-4.31,2.73-6.54.93-3.02.16-6.02-.8-8.76.67,3.57,3.86,5.89,6.96,7.82,3.11,1.93,6.47,3.91,7.77,7.24.61,1.56.69,3.4-.05,5.1s-2.4,3.21-4.28,3.6c-.58-1.94-1.31-3.83-2.18-5.64.48.75.33,2.5.45,3.41.15,1.18.42,2.38.45,3.58-3.33.16-6.84-1.22-8.94-3.28Z"/><path class="cls-21" d="m1627.66,760.75c-1.69-1.65-2.62-4.07-2.1-6.54.47-2.24,2.04-4.31,2.73-6.54.93-3.02.16-6.02-.8-8.76.67,3.57,3.86,5.89,6.96,7.82,3.11,1.93,6.47,3.91,7.77,7.24.61,1.56.69,3.4-.05,5.1s-2.4,3.21-4.28,3.6c-.58-1.94-1.31-3.83-2.18-5.64.48.75.33,2.5.45,3.41.15,1.18.42,2.38.45,3.58-3.33.16-6.84-1.22-8.94-3.28Z"/><path class="cls-21" d="m1709.66,645.75c-1.69-1.65-2.62-4.07-2.1-6.54.47-2.24,2.04-4.31,2.73-6.54.93-3.02.16-6.02-.8-8.76.67,3.57,3.86,5.89,6.96,7.82,3.11,1.93,6.47,3.91,7.77,7.24.61,1.56.69,3.4-.05,5.1s-2.4,3.21-4.28,3.6c-.58-1.94-1.31-3.83-2.18-5.64.48.75.33,2.5.45,3.41.15,1.18.42,2.38.45,3.58-3.33.16-6.84-1.22-8.94-3.28Z"/><path class="cls-21" d="m1258.66,747.75c-1.69-1.65-2.62-4.07-2.1-6.54.47-2.24,2.04-4.31,2.73-6.54.93-3.02.16-6.02-.8-8.76.67,3.57,3.86,5.89,6.96,7.82,3.11,1.93,6.47,3.91,7.77,7.24.61,1.56.69,3.4-.05,5.1s-2.4,3.21-4.28,3.6c-.58-1.94-1.31-3.83-2.18-5.64.48.75.33,2.5.45,3.41.15,1.18.42,2.38.45,3.58-3.33.16-6.84-1.22-8.94-3.28Z"/><path class="cls-21" d="m1618.5,888.58c.4-1.76,1.6-3.34,3.42-4,1.65-.59,3.63-.4,5.36-.85,2.34-.61,3.98-2.31,5.38-4.04-2.05,1.87-2.29,4.88-2.3,7.68,0,2.8.05,5.79-1.6,7.97-.77,1.02-1.93,1.82-3.34,2.02s-3.06-.27-4.07-1.34c1.03-1.16,1.97-2.39,2.8-3.69-.3.61-1.49,1.22-2.04,1.66-.71.57-1.38,1.23-2.15,1.73-1.44-2.11-1.95-4.94-1.45-7.14Z"/><path class="cls-21" d="m1632.14,1003.51c.4-1.76,1.6-3.34,3.42-4,1.65-.59,3.63-.4,5.36-.85,2.34-.61,3.98-2.31,5.38-4.04-2.05,1.87-2.29,4.88-2.3,7.68,0,2.8.05,5.79-1.6,7.97-.77,1.02-1.93,1.82-3.34,2.02s-3.06-.27-4.07-1.34c1.03-1.16,1.97-2.39,2.8-3.69-.3.61-1.49,1.22-2.04,1.66-.71.57-1.38,1.23-2.15,1.73-1.44-2.11-1.95-4.94-1.45-7.14Z"/><path class="cls-21" d="m1643.14,723.51c.4-1.76,1.6-3.34,3.42-4,1.65-.59,3.63-.4,5.36-.85,2.34-.61,3.98-2.31,5.38-4.04-2.05,1.87-2.29,4.88-2.3,7.68,0,2.8.05,5.79-1.6,7.97-.77,1.02-1.93,1.82-3.34,2.02s-3.06-.27-4.07-1.34c1.03-1.16,1.97-2.39,2.8-3.69-.3.61-1.49,1.22-2.04,1.66-.71.57-1.38,1.23-2.15,1.73-1.44-2.11-1.95-4.94-1.45-7.14Z"/><path class="cls-21" d="m1448.55,819.84c-.49-1.74-.18-3.7,1.11-5.14,1.17-1.31,3-2.08,4.31-3.29,1.77-1.65,2.41-3.93,2.82-6.11-.92,2.62.31,5.38,1.63,7.85,1.32,2.47,2.8,5.07,2.38,7.77-.19,1.26-.84,2.52-1.98,3.36s-2.82,1.21-4.22.75c.36-1.51.6-3.04.71-4.57.03.68-.74,1.78-1.01,2.43-.35.84-.63,1.74-1.07,2.55-2.27-1.17-4.06-3.42-4.67-5.59Z"/><path class="cls-21" d="m1220.14,866.51c.4-1.76,1.6-3.34,3.42-4,1.65-.59,3.63-.4,5.36-.85,2.34-.61,3.98-2.31,5.38-4.04-2.05,1.87-2.29,4.88-2.3,7.68,0,2.8.05,5.79-1.6,7.97-.77,1.02-1.93,1.82-3.34,2.02s-3.06-.27-4.07-1.34c1.03-1.16,1.97-2.39,2.8-3.69-.3.61-1.49,1.22-2.04,1.66-.71.57-1.38,1.23-2.15,1.73-1.44-2.11-1.95-4.94-1.45-7.14Z"/><path class="cls-21" d="m1218.29,843.06c-1.24-1.32-1.88-3.19-1.4-5.07.43-1.7,1.7-3.23,2.29-4.91.81-2.28.31-4.6-.34-6.72.4,2.75,2.77,4.63,5.08,6.2,2.31,1.57,4.83,3.19,5.71,5.78.41,1.21.42,2.62-.2,3.9s-1.94,2.38-3.39,2.62c-.38-1.5-.88-2.97-1.49-4.38.34.59.17,1.92.24,2.62.08.91.25,1.83.23,2.75-2.55.02-5.19-1.15-6.73-2.79Z"/><path class="cls-21" d="m1309.03,864.5c-1.24-1.32-1.88-3.19-1.4-5.07.43-1.7,1.7-3.23,2.29-4.91.81-2.28.31-4.6-.34-6.72.4,2.75,2.77,4.63,5.08,6.2,2.31,1.57,4.83,3.19,5.71,5.78.41,1.21.42,2.62-.2,3.9s-1.94,2.38-3.39,2.62c-.38-1.5-.88-2.97-1.49-4.38.34.59.17,1.92.24,2.62.08.91.25,1.83.23,2.75-2.55.02-5.19-1.15-6.73-2.79Z"/><path class="cls-21" d="m1611.95,826.34c.3-1.78,1.42-3.42,3.2-4.17,1.62-.68,3.6-.6,5.3-1.13,2.31-.73,3.85-2.52,5.16-4.33-1.95,1.98-2.02,5-1.88,7.79.14,2.8.36,5.78-1.17,8.04-.72,1.06-1.83,1.92-3.23,2.19s-3.07-.11-4.14-1.12c.97-1.21,1.84-2.49,2.6-3.83-.26.63-1.43,1.29-1.95,1.77-.67.61-1.31,1.3-2.06,1.84-1.55-2.03-2.21-4.83-1.83-7.05Z"/><path class="cls-21" d="m1681.96,682.36c.3-1.78,1.41-3.43,3.19-4.18,1.62-.69,3.6-.61,5.3-1.15,2.3-.74,3.85-2.53,5.15-4.34-1.94,1.98-2.01,5-1.86,7.8.15,2.8.38,5.77-1.15,8.05-.71,1.06-1.83,1.92-3.22,2.2s-3.07-.1-4.14-1.11c.97-1.21,1.83-2.5,2.59-3.84-.26.63-1.42,1.3-1.95,1.78-.67.61-1.31,1.31-2.05,1.85-1.56-2.02-2.23-4.83-1.85-7.05Z"/><path class="cls-21" d="m1240.37,790.13c1.04-1.48,2.74-2.49,4.68-2.41,1.75.07,3.51,1,5.28,1.24,2.4.32,4.56-.63,6.51-1.71-2.61.96-3.96,3.65-5.03,6.24-1.07,2.59-2.14,5.38-4.49,6.77-1.1.65-2.48.95-3.85.6s-2.73-1.41-3.26-2.78c1.4-.68,2.73-1.47,3.98-2.36-.51.45-1.84.56-2.52.77-.87.26-1.74.62-2.65.79-.54-2.5.06-5.31,1.36-7.16Z"/><g><path class="cls-37" d="m1867.33,416.31c1.52,2.93,3.61,5.76,6.73,7.87,3.58,2.43,8.31,3.76,13.09,4.35s9.66.49,14.51.37c1.99-.05,4.19-.17,5.6-1.22,1.04-.78,1.42-1.94,1.32-3.03s-.64-2.13-1.23-3.13c-3.75-6.41-9.7-11.96-15.82-17.27-3.24-2.81-6.8-5.71-11.57-6.79-2.74-.62-5.67-.58-8.53-.54-2.18.03-4.66-.27-5.48,1.49s-1.23,3.78-1.38,5.67c-.34,4.16.75,8.36,2.76,12.23Z"/><path d="m1866.92,397.22c-1.58,1.72-1.71,3.98-1.19,6.03,1.38,5.43,6.82,9.9,13.19,12.75,6.37,2.85,13.66,4.32,20.84,5.75,8.3,1.66,16.61,3.31,24.91,4.97-10.81-7.19-21.02-14.88-30.56-23-2.62-2.23-5.22-4.51-8.34-6.37-2.6-1.54-6.7-3.57-10.21-3.37-3.09.18-6.85,1.29-8.64,3.23Z"/><polygon points="1864.96 391.17 1857.65 397.33 1865 395.49 1864.96 391.17"/><path class="cls-37" d="m1869.61,387c-4.51.12-8.38,4.84-7.48,6.93.05.12.18.37,1.07.99,1.25.87,3.4,2.36,6.46,2.38,1.4,0,4.04.02,5.54-1.81,1.45-1.78,1.1-4.42-.21-6.13-1.83-2.39-5.06-2.36-5.37-2.35Z"/></g><g><path class="cls-37" d="m1787,363.45c-1.31,2.44-3.1,4.8-5.77,6.56-3.07,2.02-7.12,3.14-11.22,3.63s-8.29.41-12.44.31c-1.71-.04-3.6-.14-4.8-1.02-.89-.65-1.22-1.61-1.13-2.52s.55-1.78,1.05-2.61c3.21-5.35,8.32-9.98,13.56-14.41,2.78-2.35,5.83-4.76,9.92-5.66,2.35-.52,4.86-.48,7.31-.45,1.87.03,4-.23,4.7,1.25s1.05,3.16,1.18,4.73c.29,3.47-.64,6.97-2.37,10.2Z"/><path d="m1787.35,347.53c1.36,1.44,1.46,3.32,1.02,5.03-1.19,4.53-5.85,8.26-11.31,10.64-5.46,2.38-11.71,3.6-17.87,4.8-7.12,1.38-14.24,2.76-21.36,4.14,9.27-6,18.02-12.41,26.2-19.18,2.25-1.86,4.47-3.77,7.15-5.31,2.23-1.29,5.75-2.98,8.76-2.81,2.65.15,5.88,1.07,7.41,2.7Z"/><polygon points="1789.04 342.48 1795.3 347.62 1789 346.09 1789.04 342.48"/><path class="cls-37" d="m1785.05,339c3.87.1,7.19,4.04,6.41,5.78-.04.1-.15.31-.92.83-1.08.73-2.92,1.97-5.54,1.98-1.2,0-3.47.02-4.75-1.51-1.24-1.48-.94-3.68.18-5.12,1.57-2,4.33-1.97,4.6-1.96Z"/></g></g></g></svg>